<?xml version="1.0" encoding="utf-8"?>
<!-- Generator: Adobe Illustrator 16.0.4, SVG Export Plug-In . SVG Version: 6.00 Build 0)  -->
<!DOCTYPE svg PUBLIC "-//W3C//DTD SVG 1.1//EN" "http://www.w3.org/Graphics/SVG/1.1/DTD/svg11.dtd">
<svg version="1.1" id="Layer_1" xmlns="http://www.w3.org/2000/svg" xmlns:xlink="http://www.w3.org/1999/xlink" x="0px" y="0px"
	 width="253px" height="60.6px" viewBox="0 0 253 60.6" style="enable-background:new 0 0 253 60.6;" xml:space="preserve">
<style type="text/css">
<![CDATA[
	.st0{font-size:14.0433;}
	.st1{font-size:15.462;}
	.st2{font-family:'TimesNewRomanPS-BoldMT';}
]]>
</style>
<g>
	<path d="M28.1,48.7l-0.2,0.2C28,48.9,28.1,48.8,28.1,48.7"/>
	<path d="M30.5,33.1c0-0.3-0.2-0.4-0.4-0.4c-0.3,0-0.4,0.2-0.4,0.4c0,0.3,0.2,0.4,0.4,0.4C30.3,33.5,30.5,33.3,30.5,33.1"/>
	<path d="M34.2,16.3L34.2,16.3v11.8c0,1.1,0.5,2.1,1.1,2.4l5.6,3.3c0.1,0.2,0.3,0.3,0.5,0.3c0.2,0,0.3-0.1,0.4-0.2l5.7-3.4
		c0.7-0.3,1.1-1.3,1.1-2.4V16.3l0,0l0,0H34.2L34.2,16.3z M36.6,17.5h0.3l0.2-0.3l0.2,0.3h0.3l-0.1,0.2l0.2,0.2L37.2,18v0.3L37,18.1
		l-0.3,0.2V18l-0.3-0.1l0.2-0.2L36.6,17.5z M36.5,20.2c0.4,0,0.3,0.4,0.3,0.4c0.1,0,0-0.4,0.3-0.4c0.4,0,0.9,1.1,0.4,1.1
		c-0.2,0-0.1-0.2-0.1-0.2c0-0.1-0.1-0.1-0.2-0.1c-0.2,0-0.2,0.3-0.3,0.3c-0.1,0-0.2,0-0.2-0.1c0-0.1,0.2-0.2,0.3-0.2
		c-0.9,0-0.9,0.4-1.1,0.4c-0.3,0,0.2-0.4,0.3-0.6c-0.2,0-0.3-0.3-0.5-0.3c0.1-0.2,0.2-0.1,0.3,0C36.3,20.3,36.4,20.2,36.5,20.2
		 M36.5,23.8l0.2-0.2l-0.1-0.2h0.3l0.2-0.3l0.2,0.3h0.3l-0.1,0.2l0.2,0.2l-0.3,0.1v0.3L37.1,24l-0.3,0.2v-0.3L36.5,23.8z M34.7,16.8
		h1.5v3h-1.5V16.8z M34.8,20.9l0.2-0.2l-0.1-0.2h0.3l0.2-0.3l0.2,0.3h0.3l-0.1,0.2l0.2,0.2h-0.3v0.3L35.3,21l-0.3,0.2v-0.3H34.8z
		 M34.7,21.7h1.5v2.9h-1.5V21.7z M39.1,32.3l-3.5-2.1c-0.6-0.4-0.9-1.1-0.9-2V25h4.4V32.3z M39.1,24.6h-1.3v-2.9h1.3V24.6z
		 M38.3,20.4h0.3l0.2-0.3l0.2,0.3h0.3L39,20.6l0.2,0.2h-0.3V21l-0.3-0.2L38.5,21v-0.3h-0.3l0.2-0.2L38.3,20.4z M39.1,19.8h-1.3v-3
		h1.3V19.8z M43.6,32.6l-1.6,0.9l0,0c-0.1,0.1-0.3,0.2-0.4,0.2c-0.2,0-0.3-0.1-0.4-0.2l-1.6-0.9V25h4.1L43.6,32.6L43.6,32.6z
		 M43.6,24.6h-4.1v-7.9h4.1V24.6z M48.4,28.3c-0.1,0.9-0.3,1.5-0.9,2L44,32.3V25h4.4V28.3z M48.4,24.6H44v-7.9h4.4V24.6z"/>
	<path d="M34.8,27c0,0.1,0,0.2,0.2,0.2c-0.1,0-0.1,0.2-0.1,0.4c0,0.9,0.6,1.4,1,1.4c0.3,0,0.3-0.2,0.3-0.3c0,0.2,0.2-0.1,0.2,0.2
		c0,0.3-0.3,0.2-0.3,0.4c0,0.3,0.4,0,0.4,0.3c0,0.4-0.1,0.4-0.1,0.6c0,0.1,0.5-0.2,0.4-0.3c0.1,0.1,0.1,0.4,0.3,0.3
		c0.2,0,0.2-0.3,0.3-0.4c-0.1,0,0.4,0.3,0.4,0.2c0-0.4-0.2-0.3-0.2-0.5c0-0.3,0.6-0.3,0.5-0.3c-0.1-0.1-0.2-0.1-0.2-0.3
		c0,0-0.5-0.7,0.1-0.3c0.6,0.4,0.7-0.9,0.6-1c0,0-0.3,0.1-0.4,0.1c0.1-0.2,0.3-0.4,0.4-0.6c0-0.2-0.3,0-0.5,0.1
		c0.9-1.2,0.3-0.7-0.2-0.6c0.8-0.8,0.5-0.8,0-0.5c0.4-0.3,0.5-0.8,0.4-0.9c-0.4,0.5-0.8,0.4-0.8,0.9c0,0.3-0.1,0.9-0.3,1
		c-0.3,0.3-0.1-0.9-0.6-0.9c-0.2,0-0.6,0-0.8,0.2c0.1,0,0.3,0.3,0.3,0.4c0,0.1,0.1,0.4-0.1,0.4c-0.2,0-0.4-0.4-0.4-0.6
		c0-0.2,0-0.2,0-0.4c0-0.5-0.8-1.1-1.1-1.1c0,0.3,0.4,0.4,0.4,0.9c-0.2,0-0.4-0.3-0.4-0.2c0,0.2,0.3,0.3,0.3,0.4s-0.3-0.1-0.3,0.2
		c0,0.2,0.2,0.2,0.2,0.3C34.9,26.9,34.8,27,34.8,27"/>
	<path d="M54.4,30.8c0.3,0,0.5-0.2,0.5-0.4c0-0.3-0.3-0.4-0.5-0.4c-0.3,0-0.5,0.2-0.5,0.4C53.9,30.6,54.2,30.8,54.4,30.8"/>
	<path d="M52,31.5c0,0.3,0.3,0.4,0.5,0.4c0.3,0,0.5-0.2,0.5-0.4c0-0.3-0.3-0.4-0.5-0.4C52.2,31.1,52,31.3,52,31.5"/>
	<path d="M29.4,33.8c-0.3,0-0.5,0.2-0.5,0.4c0,0.3,0.3,0.4,0.5,0.4c0.3,0,0.5-0.2,0.5-0.4C29.9,34,29.6,33.8,29.4,33.8"/>
	<path d="M30.9,34.7c0.3,0,0.5-0.2,0.5-0.4c0-0.3-0.3-0.4-0.5-0.4c-0.3,0-0.5,0.2-0.5,0.4C30.4,34.6,30.6,34.7,30.9,34.7"/>
	<path d="M72.8,17.8c0.5-0.9,0.3-2.3-0.3-3.2c-0.2-0.2-0.1-0.6-0.3-0.6c-0.4,1.1-0.1,2.3,0.4,3.3C72.6,17.4,72.6,17.7,72.8,17.8"/>
	<path d="M11.2,17.6c0.2,0,0.1,0.3,0.3,0.1c-0.2-0.6-0.2-1.5,0-2.1c-0.1-0.5-0.3-0.9-0.8-1.3c-0.1-0.1-0.2,0-0.3,0.1
		C10.7,15.6,10.2,16.9,11.2,17.6"/>
	<path d="M74.3,16.5c0.2-0.1,0.5-0.4,0.3-0.7c-0.2-0.3-0.4-0.3-0.7-0.3c-0.3,0.2-0.4,0.4-0.3,0.7C73.8,16.4,74.1,16.6,74.3,16.5"/>
	<path d="M9.6,17.5c0.2-0.1,0.3-0.3,0.3-0.6c-0.1-0.2-0.3-0.3-0.4-0.3c-0.2,0-0.3,0.1-0.5,0.3c-0.1,0.2-0.1,0.4,0.1,0.5
		C9.2,17.5,9.4,17.5,9.6,17.5"/>
	<path d="M75,18.1c0.3,0.1,0.5,0,0.7-0.3c0.1-0.2,0.1-0.3,0-0.4c-0.2-0.1-0.3-0.3-0.5-0.3c-0.2,0.1-0.3,0.3-0.4,0.4
		C74.7,17.7,74.8,17.9,75,18.1"/>
	<path d="M73.7,18.1c0.3,0.1,0.4-0.1,0.5-0.3c0-0.2,0.2-0.4,0-0.5c-0.2-0.1-0.3-0.2-0.5-0.2c-0.3,0.1-0.3,0.3-0.3,0.6
		C73.4,18.1,73.6,18.1,73.7,18.1"/>
	<path d="M72,18.5c0.3-0.1,0.3-0.4,0.3-0.7c-0.1-0.2-0.3-0.3-0.5-0.3c-0.3,0.1-0.4,0.3-0.3,0.6C71.5,18.3,71.7,18.6,72,18.5"/>
	<path d="M12.3,18.5c0.2-0.1,0.4-0.3,0.3-0.5c-0.1-0.3-0.5-0.4-0.8-0.3c-0.1,0.2-0.3,0.3-0.1,0.5C11.9,18.4,12.2,18.5,12.3,18.5"/>
	<path d="M10.9,18.5c0.2-0.1,0.3-0.3,0.3-0.5c-0.1-0.2-0.3-0.4-0.6-0.3c-0.2,0.1-0.3,0.3-0.3,0.6C10.4,18.4,10.7,18.6,10.9,18.5"/>
	<path d="M66.4,21.4c0.3-0.3,0.2-0.9,0.3-1.5c-0.1-0.7-0.3-1.3-0.5-1.9c-0.1-0.2-0.1-0.4-0.3-0.3c-0.2,0.9-0.6,2-0.1,2.8
		C66,20.9,66.1,21.3,66.4,21.4"/>
	<path d="M9.3,18.1C9.2,18.1,9,18.4,9,18.7c0.1,0.2,0.3,0.4,0.6,0.3c0.2-0.2,0.4-0.3,0.3-0.6C9.8,18.1,9.6,18.1,9.3,18.1"/>
	<path d="M70.3,21.6c0.3-0.9,0.2-1.7-0.2-2.5c-0.3-0.2-0.3-0.5-0.4-0.8c-0.1-0.2-0.2-0.3-0.3-0.2c-0.2,0.4-0.3,0.9-0.3,1.5
		c0.2,0.8,0.7,1.4,1,2.1L70.3,21.6z"/>
	<path d="M72.7,18.4c-0.2,0.2-0.3,0.3-0.3,0.6c0.1,0.3,0.3,0.3,0.6,0.3c0.3-0.1,0.3-0.3,0.3-0.6C73.2,18.5,73,18.2,72.7,18.4"/>
	<path d="M10.8,19.9c0.2-0.1,0.3-0.3,0.3-0.5c-0.1-0.3-0.3-0.3-0.5-0.5c-0.2,0.1-0.3,0.1-0.4,0.2c-0.1,0.2-0.1,0.3,0,0.6
		C10.4,19.8,10.6,20.1,10.8,19.9"/>
	<path d="M11.4,19.6c0.2,0.2,0.3,0.4,0.6,0.3c0.1-0.1,0.3-0.3,0.3-0.5c-0.1-0.3-0.3-0.4-0.6-0.3C11.6,19.2,11.4,19.3,11.4,19.6"/>
	<path d="M73.5,20.3c0.1-0.3,0.6-0.7,0.6-1c-0.8,0.2-1.5,0.7-2.1,1.4c-0.3,0.4-0.8,0.9-0.7,1.5c0.3,0,0.4-0.2,0.6-0.3
		C72.6,21.5,73.2,21,73.5,20.3"/>
	<path d="M11.6,21.8c0.1,0,0.2-0.2,0.2-0.3c-0.4-0.4-0.7-0.8-1-1.2c-0.3-0.4-0.8-0.5-1.3-0.9c-0.2,0-0.5-0.2-0.6,0.1
		C9.4,20.4,10.3,21.7,11.6,21.8"/>
	<path d="M72,23.7c0.3,0.2,0.6-0.1,0.9-0.2c1-0.5,1.5-1.6,1.5-2.7h-0.2C73.3,21.7,72.6,22.6,72,23.7"/>
	<path d="M69.1,22.2c0.3-0.1,0.5-0.3,0.4-0.8c-0.1-0.1-0.2-0.3-0.3-0.3c-0.1,0-0.3,0-0.3,0.1c-0.3,0.1-0.3,0.3-0.3,0.6
		C68.7,22,68.9,22.2,69.1,22.2"/>
	<path d="M10.6,22.9c-0.4-0.4-0.9-0.9-1.4-1.2c-0.5-0.1-1-0.3-1.5-0.3c-0.2,0.1-0.5,0-0.5,0.3c0.9,0.3,1.5,1,2.3,1.3
		C9.9,22.9,10.3,23.1,10.6,22.9"/>
	<path d="M16.2,22.8c0.3-0.1,0.4-0.3,0.3-0.6c-0.1-0.3-0.3-0.3-0.5-0.3c-0.2,0.1-0.4,0.3-0.3,0.6C15.8,22.7,16,22.7,16.2,22.8"/>
	<path d="M14.5,22.8c0.2,0.2,0.4,0.1,0.6-0.1c0.1-0.2,0.1-0.4-0.1-0.6c-0.2-0.2-0.5-0.1-0.7,0.2C14.1,22.5,14.3,22.7,14.5,22.8"/>
	<path d="M69.3,22.6C69.1,22.7,69,22.8,69,23c0,0.3,0.3,0.4,0.6,0.4c0.2-0.1,0.4-0.3,0.3-0.6C69.7,22.8,69.5,22.5,69.3,22.6"/>
	<path d="M70.9,23.5c0.1-0.1,0.2-0.2,0.3-0.2c0.2-0.1,0-0.3-0.1-0.4c-0.1-0.1-0.3-0.3-0.4-0.2c-0.2,0.2-0.4,0.3-0.3,0.5
		C70.4,23.4,70.7,23.5,70.9,23.5"/>
	<path d="M7.6,23.1c0.1,0.1,0.1,0.3,0.2,0.3c0.3,0.1,0.6,0,0.7-0.3c-0.1-0.3-0.3-0.4-0.6-0.4C7.7,22.8,7.7,22.9,7.6,23.1"/>
	<path d="M16.2,23.7c0.1,0.2,0.3,0.3,0.6,0.3c0.2-0.1,0.4-0.3,0.4-0.5c-0.1-0.3-0.4-0.5-0.7-0.3C16.3,23.3,16.2,23.5,16.2,23.7"/>
	<path d="M14.8,23.5c-0.1,0.3,0.1,0.3,0.3,0.5c0.3,0.2,0.5-0.1,0.6-0.2c0.1-0.2,0-0.3-0.1-0.4c-0.2-0.1-0.3-0.3-0.4-0.2
		C15,23.3,14.9,23.4,14.8,23.5"/>
	<path d="M74.5,23.4c-0.2,0.1-0.3,0.2-0.5,0.3c0,0.1-0.1,0.3,0.1,0.3c0.1,0.2,0.3,0.2,0.6,0.2c0.1-0.1,0.3-0.3,0.3-0.5
		C75,23.5,74.8,23.4,74.5,23.4"/>
	<path d="M76.2,24.4c0.3,0,0.4-0.3,0.5-0.4c-0.1-0.3-0.3-0.3-0.6-0.3c-0.2,0.1-0.3,0.3-0.3,0.4C75.8,24.3,76.1,24.4,76.2,24.4"/>
	<path d="M11,24c-0.2,0.1-0.3,0.1-0.4,0.3c-0.1,0.2,0,0.3,0.1,0.5c0.1,0.1,0.3,0.3,0.5,0.2c0.3-0.1,0.3-0.3,0.3-0.6
		C11.3,24.1,11.2,24,11,24"/>
	<path d="M12.5,25c0.1-0.2,0.3-0.3,0.2-0.4c-0.1-0.3-0.7-0.5-0.9-0.1c-0.2,0.3,0,0.4,0.2,0.6C12.2,25.1,12.3,25.1,12.5,25"/>
	<path d="M73,24.2c-0.2,0.1-0.3,0.3-0.3,0.5c0.1,0.2,0.3,0.3,0.5,0.3c0.2-0.2,0.3-0.3,0.3-0.6C73.4,24.2,73.2,24.1,73,24.2"/>
	<path d="M74.7,24.8c-0.1,0.2-0.1,0.4,0.1,0.5c0.2,0.1,0.4,0.2,0.6,0.1c0.3-0.2,0.3-0.4,0.3-0.6c-0.2-0.1-0.2-0.2-0.3-0.3
		C75,24.5,74.8,24.6,74.7,24.8"/>
	<path d="M9.7,25.2c0,0.1-0.1,0.4,0.1,0.5c0.2,0.1,0.3,0.2,0.5,0.1c0.1-0.1,0.3-0.2,0.2-0.3C10.4,25.1,9.9,24.7,9.7,25.2"/>
	<path d="M71,25.4c0.3,0.2,0.7,0.3,1,0.6c0.5,0.5,1.5,0.4,2.1,0.1c0-0.1,0.1-0.2,0-0.3c-0.9,0-1.4-0.7-2.1-0.9
		C71.6,25.1,71.1,25.1,71,25.4"/>
	<path d="M11,25.4c-0.2,0.2-0.1,0.5,0.2,0.6c0.2,0.1,0.3,0.1,0.4-0.1c0.1-0.2,0.2-0.3,0.2-0.4C11.6,25.3,11.2,25.2,11,25.4"/>
	<path d="M13.7,26.4c0.2-0.1,0.3-0.3,0.3-0.6c-0.2-0.3-0.6-0.5-0.9-0.1c-0.3,0.2,0,0.4,0.1,0.6C13.4,26.3,13.5,26.4,13.7,26.4"/>
	<path d="M40.1,30.5c0.3,0.9,1.4,0.4,2.1,0.5c0.3-0.2,0.8-0.4,0.9-0.9c0-0.4,0.2-0.9-0.1-1.3c-0.3-0.3-0.4-0.9-0.5-1.5
		c-0.1-0.7,0.7-0.1,0.8-0.6c-0.3-0.3-0.6-0.8-1-0.4c-0.3,0.2-0.3,0.5-0.3,0.9c0.1,0.7,0.3,1.3,0.5,1.9c-0.2-0.1-0.3-0.3-0.3-0.3
		c-0.5-0.7-1.5-0.4-2.1-1.1c-0.7,0.1,0.4,0.8-0.3,0.9c0,0.2,0.2,0.3,0.2,0.4c-0.1,0.1-0.2,0.1-0.3,0.1C39.7,29.7,40,30.1,40.1,30.5"
		/>
	<path d="M15.9,27.2c0.2-0.1,0.3-0.3,0.3-0.5c-0.1-0.2-0.3-0.3-0.5-0.3c-0.2,0.1-0.3,0.3-0.3,0.5C15.6,27,15.7,27.3,15.9,27.2"/>
	<path d="M31.5,27c-0.3,1-0.8,2.3-0.1,3.2c0.3,0,0.2-0.3,0.3-0.5c0.5-0.9,0.6-1.9,0.3-2.9C31.8,26.7,31.5,26.8,31.5,27"/>
	<path d="M53.7,29.8c0.3-0.7,0.3-1.6-0.1-2.4c-0.1-0.2-0.1-0.7-0.4-0.6c0,0.5-0.2,0.9-0.3,1.4c0.1,0.7,0.3,1.2,0.6,1.8L53.7,29.8z"
		/>
	<path d="M15.1,28.7c0.8,0.1,1.6,0,2.2-0.4c0.3-0.2,0.7-0.3,0.9-0.6c-0.1-0.1-0.2-0.1-0.3-0.2C16.7,27.3,15.7,27.8,15.1,28.7"/>
	<path d="M9.5,31.1c-0.6-0.9-0.9-1.9-1.8-2.5c-0.1,0-0.3,0-0.3,0.1C7.5,29.9,8,31,9,31.4c0.3-0.1,0.5,0.3,0.7,0.1
		C9.8,31.2,9.5,31.2,9.5,31.1"/>
	<path d="M52.5,30c0.2-0.1,0.3-0.3,0.3-0.6c-0.2-0.3-0.5-0.3-0.7-0.1c-0.1,0.1-0.2,0.3-0.1,0.4C52,29.9,52.2,30.1,52.5,30"/>
	<path d="M72.9,32.7c1.5-0.4,2.3-1.7,3.1-2.9c-0.2-0.1-0.5,0-0.7,0.1c-1.4,0.3-1.8,1.8-2.7,2.7C72.7,32.7,72.8,32.7,72.9,32.7"/>
	<path d="M6.2,31.4c0.3,0,0.1-0.3,0.3-0.3c-0.1-0.3-0.3-0.3-0.4-0.4c-0.2,0.1-0.4,0.3-0.3,0.6C5.7,31.4,6,31.5,6.2,31.4"/>
	<path d="M10.5,31c0.8,0.8,1.9,1.1,2.9,0.8c0.1-0.1,0.3-0.1,0.3-0.3c-0.9-0.7-2.1-0.4-3.2-0.7C10.5,30.7,10.5,30.8,10.5,31"/>
	<path d="M6.9,31.3c0.1,0.2,0.2,0.3,0.3,0.3c0.3,0.1,0.5,0,0.6-0.3c0-0.1,0-0.3-0.1-0.4c-0.1-0.2-0.3-0.2-0.5-0.2
		C7.2,31,6.9,31.1,6.9,31.3"/>
	<path d="M31.1,31c-0.2,0.1-0.3,0.3-0.2,0.5c0.1,0.2,0.3,0.3,0.5,0.2c0.2-0.1,0.3-0.3,0.3-0.5C31.7,31,31.3,31,31.1,31"/>
	<path d="M76.1,31.3c-0.1,0.2,0.1,0.3,0.2,0.4c0.2,0.1,0.3,0.2,0.5,0.1c0.2-0.2,0.4-0.3,0.3-0.5c-0.2-0.1-0.3-0.2-0.3-0.3
		C76.4,31,76.2,31.1,76.1,31.3"/>
	<path d="M78.1,31.9c0.2,0.1,0.3,0,0.4-0.2c0.1-0.2,0.3-0.3,0.1-0.6c-0.2,0-0.3-0.3-0.6-0.2c-0.2,0.1-0.3,0.3-0.3,0.4
		C77.8,31.7,78,31.7,78.1,31.9"/>
	<path d="M4.8,32.5c0.2,0.1,0.3-0.1,0.4-0.1c0.1-0.2,0.2-0.3,0.2-0.4c-0.1-0.3-0.3-0.3-0.5-0.4c-0.3,0.1-0.4,0.3-0.4,0.5
		C4.5,32.3,4.6,32.4,4.8,32.5"/>
	<path d="M58.2,32c-0.1,0.3,0.1,0.3,0.3,0.5c0.3,0.1,0.4-0.1,0.6-0.3c0-0.1,0-0.3,0-0.3C58.9,31.6,58.4,31.7,58.2,32"/>
	<path d="M8.9,31.8c-0.3,0.1-0.2,0.3-0.2,0.6c0.1,0.1,0.2,0.3,0.4,0.3c0.3,0,0.3-0.2,0.3-0.3C9.5,32,9.2,31.7,8.9,31.8"/>
	<path d="M6.1,32.6c0.1,0.3,0.3,0.4,0.7,0.3c0.2-0.1,0.3-0.3,0.3-0.6C6.9,32.2,6.8,32,6.5,32C6.3,32.1,6.2,32.3,6.1,32.6"/>
	<path d="M60.4,32.9c0.3-0.1,0.3-0.3,0.3-0.6c-0.2-0.2-0.3-0.3-0.5-0.3c-0.3,0.1-0.3,0.3-0.4,0.5C59.9,32.8,60.2,33,60.4,32.9"/>
	<path d="M8.1,32.8c0.1-0.1,0.2-0.2,0.2-0.3C8.2,32.3,8,32,7.8,32.1c-0.2,0.1-0.3,0.3-0.3,0.5c0,0.2,0.3,0.3,0.3,0.3
		C7.9,32.9,8,32.8,8.1,32.8"/>
	<path d="M74.6,32.3c-0.1,0.2-0.1,0.3,0,0.4c0.2,0.1,0.3,0.3,0.5,0.2c0.2-0.1,0.3-0.2,0.4-0.4C75.6,32.2,74.9,31.9,74.6,32.3"/>
	<path d="M76.6,32.6c-0.2,0.3,0.1,0.5,0.3,0.6c0.3,0,0.5-0.2,0.6-0.4c-0.1-0.3-0.3-0.5-0.6-0.4C76.8,32.3,76.8,32.5,76.6,32.6"/>
	<path d="M64.9,32.6c-0.3,0.1-0.4,0.4-0.3,0.7c0.2,0.1,0.3,0.2,0.5,0.2c0.2-0.2,0.5-0.3,0.3-0.6C65.3,32.8,65.1,32.6,64.9,32.6"/>
	<path d="M57.6,33.3c-0.1,0.3,0.1,0.4,0.3,0.5c0.3,0.2,0.4-0.1,0.6-0.2c0-0.1,0.1-0.3-0.1-0.3C58.3,32.9,57.8,32.9,57.6,33.3"/>
	<path d="M59.4,33.1c-0.2,0-0.3,0.1-0.3,0.2c-0.1,0.1,0,0.3,0,0.4c0.2,0.1,0.3,0.3,0.6,0.1c0.2-0.1,0.3-0.2,0.2-0.4
		C59.7,33.2,59.6,33.2,59.4,33.1"/>
	<path d="M16.5,33.9c0-0.2,0.2-0.3,0.1-0.5c-0.2-0.1-0.3-0.3-0.5-0.3c-0.2,0-0.2,0.2-0.3,0.3c-0.1,0.2-0.1,0.5,0.2,0.6
		C16.2,34.2,16.4,34,16.5,33.9"/>
	<path d="M67.8,34c0.2-0.1,0.4-0.2,0.3-0.4c-0.2-0.2-0.4-0.4-0.8-0.3c-0.1,0.2-0.2,0.3-0.2,0.4C67.3,33.8,67.4,34,67.8,34"/>
	<path d="M66.2,33.2c-0.2,0.1-0.3,0.2-0.4,0.3c0,0.2,0,0.3,0.1,0.4c0.2,0.2,0.3,0.2,0.6,0.1c0.1-0.1,0.3-0.3,0.3-0.5
		C66.7,33.4,66.4,33.2,66.2,33.2"/>
	<path d="M78.3,33.8L78.3,33.8c-1.2-0.2-2.3-0.9-3.4-0.3c-0.2,0.2-0.6,0-0.7,0.3c1,0.3,2.4,0.9,3.4,0.3C77.9,34,78.3,34.2,78.3,33.8
		"/>
	<path d="M5.1,34.3c1.1,0.3,2.3,0,3.3-0.6l0.1-0.2l-0.1-0.1c-1.2-0.2-2.5,0-3.4,0.7L5.1,34.3z"/>
	<path d="M70.8,33.7c-0.1-0.3-0.4-0.3-0.6-0.3c-0.2,0.1-0.4,0.3-0.3,0.5c0.1,0.3,0.4,0.3,0.7,0.3C70.7,34,70.8,33.9,70.8,33.7"/>
	<path d="M12.8,34.3c0.3-0.1,0.2-0.3,0.3-0.5c-0.2-0.3-0.3-0.4-0.7-0.3c-0.1,0.1-0.3,0.2-0.3,0.5C12.2,34.2,12.5,34.4,12.8,34.3"/>
	<path d="M10.6,34.4c0.2,0.1,0.3,0.1,0.5-0.1c0.1-0.1,0.2-0.3,0.2-0.4c-0.1-0.3-0.3-0.3-0.5-0.4c-0.2,0.1-0.3,0.2-0.4,0.3
		C10.3,34,10.4,34.3,10.6,34.4"/>
	<path d="M72.6,34.6c-0.1-0.2-0.3-0.3-0.4-0.4c-0.1,0.1-0.3,0.1-0.3,0.2c-0.2,0.1-0.2,0.3-0.1,0.5c0.1,0.2,0.3,0.3,0.5,0.3
		C72.3,34.9,72.5,34.7,72.6,34.6"/>
	<path d="M8.7,35.8c0.2-0.4,0.5-0.7,0.6-1.1c0-0.2,0.2-0.3,0.2-0.4l-0.1-0.1c-1,0.4-1.8,1.2-2.6,2.1l0.1,0.2
		C7.5,36.4,8.2,36.4,8.7,35.8"/>
	<path d="M70.8,35.3c0.2-0.2,0.4-0.2,0.3-0.5c-0.1-0.2-0.3-0.4-0.6-0.3c-0.2,0.2-0.4,0.3-0.3,0.5C70.5,35.2,70.7,35.3,70.8,35.3"/>
	<path d="M11.7,34.6c-0.3,0.1-0.3,0.3-0.3,0.6c0.2,0.2,0.3,0.3,0.6,0.3c0.2-0.1,0.3-0.2,0.3-0.5c-0.1,0-0.1-0.1-0.1-0.2
		C12.2,34.6,11.9,34.6,11.7,34.6"/>
	<path d="M76.8,36.1c0.2-0.1,0.4-0.3,0.3-0.6c-0.2-0.2-0.3-0.3-0.6-0.3c-0.3,0.1-0.3,0.3-0.6,0.3c-0.4-0.4-1-1-1.8-1
		c-0.3,0.2,0.2,0.4,0.3,0.6c0.3,0.8,1.1,1.3,1.8,1.6c0.1,0.1,0.3,0.1,0.3,0c0-0.2-0.2-0.3-0.3-0.5C76.2,35.9,76.7,36.2,76.8,36.1"/>
	<path d="M78.4,35.2c0.1-0.1,0.2-0.3,0-0.5c-0.2-0.2-0.3-0.3-0.6-0.2c-0.2,0.1-0.3,0.2-0.3,0.3c-0.1,0.2,0.1,0.3,0.2,0.4
		C77.9,35.4,78.2,35.5,78.4,35.2"/>
	<path d="M66.9,34.8c0,0.2,0.2,0.3,0.3,0.4c0.3,1,1.5,1.5,2.3,2.1c0.1,0,0.2,0,0.3-0.1c-0.1-0.3-0.3-0.8-0.6-1
		c-0.1-0.3-0.3-0.4-0.5-0.7C68.2,35.2,67.6,34.7,66.9,34.8"/>
	<path d="M10.1,35.5c0.2,0.2,0.3,0.3,0.6,0.2c0.1-0.1,0.3-0.3,0.3-0.5c-0.1-0.1-0.3-0.3-0.4-0.3C10.2,35,9.9,35.2,10.1,35.5"/>
	<path d="M71.4,35.6c-0.2,0.2,0,0.3,0,0.4c0.2,0.2,0.3,0.1,0.6,0.1c0.1-0.1,0.3-0.2,0.3-0.3C72.1,35.5,71.7,35.2,71.4,35.6"/>
	<path d="M78.3,36.8c0.2-0.1,0.4-0.3,0.3-0.6c-0.1-0.2-0.2-0.2-0.3-0.3c-0.3-0.1-0.5,0-0.7,0.2c0,0.2-0.1,0.3,0,0.5
		C77.9,36.7,78,36.9,78.3,36.8"/>
	<path d="M61,39.7c-1.2-0.3-2.6-0.1-3.4,0.7v0.2c0.9,0,1.9,0,2.7-0.4C60.5,40,61,40,61,39.7"/>
	<path d="M23.4,41.2c0.3-0.1,0.3-0.2,0.3-0.4c-0.1-0.2-0.3-0.3-0.5-0.3c-0.2,0.1-0.4,0.3-0.3,0.6C23.1,41.2,23.3,41.2,23.4,41.2"/>
	<path d="M59.6,41.5c0.2,0.1,0.3,0.3,0.6,0.2c0.3-0.1,0.3-0.3,0.3-0.6c-0.2-0.4-0.9-0.4-1,0C59.6,41.2,59.6,41.4,59.6,41.5"/>
	<path d="M65.7,41c-1.4-0.1-2.8-0.1-3.7,0.9l0.2,0.1h1.4c0.9,0,1.5-0.5,2.2-0.9L65.7,41L65.7,41z"/>
	<path d="M16.2,41.4C16,41.6,15.8,41.7,16,42c0.1,0.2,0.3,0.3,0.5,0.3c0.3-0.1,0.3-0.3,0.3-0.5C16.8,41.6,16.5,41.2,16.2,41.4"/>
	<path d="M17.7,41.7c-0.1,0.1-0.3,0.1-0.3,0.3c-0.1,0.2,0,0.3,0.2,0.4c0.1,0.1,0.3,0.1,0.5,0c0.1-0.1,0.2-0.2,0.1-0.3
		C18.1,41.8,17.9,41.7,17.7,41.7"/>
	<path d="M7.5,44.4c0.3,0.2,0.7,0.5,0.9,0.3c-0.6-0.8-0.8-1.6-1.6-2.1c-0.2-0.1-0.3-0.2-0.5-0.3c-0.2,0.1-0.4-0.3-0.5,0
		C6.6,42.9,6.6,43.9,7.5,44.4"/>
	<path d="M82.7,34.7c-0.4-0.8-1.1-1-1.9-1c-0.7,0.1-1.1,0.5-1.5,1c-0.2,0.6,0.1,1.1,0.5,1.5c0.2,0.1,0.4,0.1,0.5-0.1
		c0.1-0.3-0.3-0.3-0.3-0.6c-0.1-0.3,0-0.7,0.3-0.9c0.3-0.3,0.7-0.2,1-0.2c0.3,0.2,0.6,0.4,0.8,0.8c0.2,0.4,0.2,0.9,0,1.4
		c-0.3,0.7-0.9,1.2-1.5,1.3C78.5,38.2,55.3,38,55.3,38c-2.7,0.3-5.8-0.5-8.2,0.9c-1.1,0.5-1.6,1.7-1.9,2.7c-0.7,0.6-1.5,1.4-2,2.1
		l-0.1-0.1c0.2-0.6,0.4-1.2,0.5-1.8c0.3-0.5,0.3-1.2,0.7-1.8c0.9-1.5,1.9-3.2,3.4-4.3c0.6-0.9,1.8-0.7,2.7-0.7
		c1,0.5,2.3,0.6,3.5,0.5c0.1-0.1,0.1-0.1,0.1-0.2c-0.3-0.3-0.9-0.4-1.4-0.8c-1-0.5-2,0.2-3.1,0.1c-0.1-0.1-0.1-0.1-0.1-0.2
		c0.9-0.7,2.1-1.2,3.2-1.7c0.9-0.5,1.8-0.8,2.7-1.1c0.3,0,0.8-0.3,1.1-0.1c-0.8,1.5-1.5,3.1-2.7,4.4c-0.4,0-0.6,0.4-1,0.4
		c-0.2,0.3-0.6,0.1-0.9,0.2c-0.8,0.3-1.9,0.2-2.5,0.9c0.1,0.1,0.1,0.1,0.2,0.2c1.5,0,3.2,0.1,5,0.1c0.2-0.1,0.3-0.3,0.4-0.5
		c-0.3-0.4,0.1-0.9,0.3-1.2c0.2-0.6,0.5-1,0.7-1.6c0.5-1,1.1-2.1,1.7-3.2c0.1,0,0.1,0.1,0.2,0.1c1.1-0.4,2.6,0,3.9-0.1l0.2,0.2
		c0.1,1.2-0.1,2.5-0.3,3.7c-0.4,1.5-2.1,1.4-3.3,1.7c-0.3,0.2-0.9,0.1-0.9,0.6c1.5,0.3,3.3,0.2,4.8,0.1c0.3-0.1,0.3-0.3,0.4-0.6
		c0.1-0.3,0.3-0.6,0.3-0.9c-0.3-0.3,0-0.9-0.1-1.5c0.1-0.1,0.1-0.3,0-0.5c0.2-0.8,0.2-1.6,0.3-2.4c0.4,0.1,0.7,0.6,1.1,0.6
		c0.3-0.3-0.3-0.5-0.4-0.8c0.6-0.2,1.2,0,1.7,0.3l-0.3,0.3c-0.2,0.3,0.1,0.5,0.3,0.6c0.2,0.1,0.3-0.1,0.4-0.1c0.3-0.3,0-0.4,0.1-0.7
		c1.9,0.3,3.7,0.8,5.4,1.5c0.5,0.2,0.9,0.5,1.5,0.5c-0.5-0.5-1.3-0.8-2-1c-0.4-0.3-1-0.3-1.4-0.7c0.1-0.1,0.3-0.1,0.3-0.2
		c0.9-0.1,1.6-0.8,2.2-1.5c0.1-0.2,0.3-0.1,0.3-0.3c-0.3-0.3-0.6,0.1-0.9,0.1c-1.1,0.2-1.5,1.5-2.6,1.7c-1.3-0.3-2.7-0.6-3.9-0.9
		c-0.6-0.1-1.3-0.2-1.9-0.4c0-0.5,0.1-0.9,0.2-1.5c0.1-0.2,0.1-0.3,0.1-0.5c0.1-0.1,0.2-0.2,0.3-0.3l0.5-0.3c0.6-0.2,1.4,0,2.1,0
		c0.3,0.2,0.9,0.2,1.3,0.3c0.2-0.1,0.4-0.2,0.6-0.1c0.9-0.4,0.3-1.4,0.3-2.1l0,0c0.7-0.7,1.4-1.4,2-2.1c0-0.2-0.1-0.4-0.3-0.5
		c-0.2-0.1-0.3-0.1-0.5,0.1c-0.3,0.3,0,0.5,0,0.8c-0.3,0.4-0.8,0.8-1.2,1c0,0-0.1,0-0.3,0.1l-0.1-0.2c-0.1-0.2-0.2-0.3-0.2-0.5
		c-0.2-0.2-0.3-0.5-0.4-0.7c-0.4-1.1-1.3-1.8-2-2.7c-1.3-1.7-3.3-2.7-5.4-3.3c-2-0.7-4,0.2-5.8,0.9c-0.6-0.2-0.9-0.6-1-1.1
		c-0.1-0.9,0.1-1.9,0.5-2.7c0.1-0.6,0.5-1.1,0.7-1.7c0.4-1.5,0.9-2.8,1-4.4c0.1-0.9-0.7-1.6-1.4-2.1c-0.5-0.2-1-0.1-1.4,0.3
		c-0.3,0.7-1,1.2-1.6,1.5c-0.1,0.4,0.5,0.2,0.7,0.3c0.6,0.1,1.2-0.1,1.6,0.3c0.1,1-0.5,1.9-1.1,2.7c-0.9,1.3-1.8,2.6-2.3,4l0,0v-1.4
		l0,0l0,0H38.3c-0.6-0.2-1.1-0.9-1.7-0.9c-1.5-0.6-2.4,0.9-3.9,0.8c-0.2,0.1-0.2,0.3-0.3,0.4c-0.1,0.1-0.2,0-0.3,0
		c-0.1-0.6-0.3-1.2-0.3-1.8c-0.2-0.3-0.1-0.6-0.2-0.9c-0.9-2.2,2-0.5,2.6-1.9c0.5-1.1-0.9-1.3-1.4-2.1V7.9c-0.4-0.4-0.9-0.5-1.1-1.1
		c0.2-0.7,0.3-1.4,0.1-2c0-0.2-0.1-0.3-0.3-0.3c-0.5,0.7-0.9,1.2-1.3,1.9c-0.5-0.3-0.9-0.9-1.5-1.1c-0.3-0.1-0.8-0.4-1.2-0.3
		c-0.1,0.2,0,0.3,0.1,0.3c0,1,0.5,1.8,1.3,2.5l0.1,0.3c-0.4,1-0.3,2.2-0.4,3.4c-1.1,2.9-3,5.7-5.6,7.8c-1.5,1.6-3.2,3.3-3.4,5.5
		c-0.1,0.3,0.1,0.8-0.3,1c-0.9-0.3-1.7-0.7-2.4-1.3c-1.2-0.9-2.8-0.7-3.6-2.2c-0.3-0.6,0.1-1.2,0.3-1.6c0.9-0.9,0.8-2.3,0.3-3.3
		c-0.1,0-0.1,0.1-0.2,0.1c-0.1,1.5-1.3,2.6-0.9,4.2c0.1,0.5,0.3,0.8,0.5,1.3C13.2,23,12.9,23,12.8,23c-0.6-0.1-1.1-0.3-1.7-0.3
		c-1.2,0.5-2.7-0.1-3.7,0.9C7.2,23.7,7,23.8,7,24c0.6,0,1.1,0.2,1.6,0.1c0.9,0.2,1.5-0.6,2.1-0.9h0.2c0.3-0.3,0.7-0.1,1-0.2
		c1.6,0.2,2.8,0.9,4.2,1.7v0.1c-0.5,0.3-1.1,0.3-1.6,0.7c-0.6,0.4-1.3,1-1.5,1.7c-0.4,0.6,0.1,1.2,0.3,1.7c0,0.3,0.1,0.6,0.3,0.7
		c0.8-0.9,0.1-2,0.2-3c0.2-0.8,0.9-1.1,1.6-1.4c1.5-0.6,2.5,0.6,3.7,1.2c0,1.2,0.2,2.3-0.1,3.4c-0.3,0.1-0.9,0.2-1.2,0.2
		c-2.1,0.2-3.6,1.3-5.4,1.9c-0.9,0.3-1.8,0.3-2.6,0.6c0.6,0.2,1.3-0.1,2-0.1c2.5-0.3,4.4-2.3,7.1-2l0.1,0.1
		c-0.3,0.7-0.7,1.2-1.2,1.6c-0.1-0.3-0.1-0.5-0.3-0.7c-0.2-0.1-0.4,0-0.6,0.2c-0.1,0.1-0.1,0.3,0,0.4c0.1,0.3,0.3,0.3,0.6,0.3
		c-0.1,0.3-0.3,0.3-0.5,0.5c-0.7,1.2-2.1,0.7-3,1.5c-0.1,0.2-0.6,0.3-0.3,0.6c0.9,0.1,1.9-0.2,2.7-0.7c0.9-1,2-2.1,2.9-3.1
		c0.2,0.9-0.1,1.7-0.6,2.3c-0.3-0.1-0.4-0.3-0.7-0.4c-0.3,0.1-0.4,0.3-0.4,0.5c0.1,0.2,0.2,0.4,0.3,0.5c-0.9,0.6-2,0.7-3,0.9
		c-1.9,0.3-3.7,0.3-5.6,0.4c-0.9-0.1-1.9,0.3-2.7,0c-0.9,0.2-2.1-0.1-2.8,0.4c-0.1,0.1,0,0.3,0,0.3c1.2,0.8,2.7,0.2,4.1,0.4h10
		c0.8,0,1.5-0.1,2.1-0.4c1.3-0.8,2.1-2.1,2.7-3.4c0.3-0.4,0.4-1,0.5-1.5c0.3-0.9,1-1.5,1.9-1.5c0.1,1.4-0.2,2.7-0.4,3.9
		c-0.2,0.9-0.7,1.6-0.3,2.5c0.1,0.4,0.5,0.4,0.9,0.4c3.1-0.1,6.2-0.2,9.4,0.1c0.6,0.1,1.1,0.3,1.7,0.3c0.1-0.1,0.3-0.1,0.2-0.3
		c-0.1-0.3-0.3-0.6-0.6-0.7c-0.1-0.2-0.3-0.1-0.3-0.2c-1.6-0.9-3.6-0.4-5.5-0.4c-1,0.1-2,0.3-2.8-0.3c-0.3-0.4-0.1-2-0.1-2
		c0-0.3,0.4-1.6,0.8-2.8c0.8,0.3,2.7,1.4,2.7,1.4c0.9,0.3,1.7,0.9,2.6,1.4c3.5,1.9,5.7,5.1,7.3,8.6c0,0.3,0.3,0.6,0.1,0.9
		c-0.5-0.9-1.3-1.3-2-2c-0.2-1.2-0.9-2.4-2-2.8c-0.3-0.6-1.2-0.6-1.8-0.8L25.3,37c-7.5-0.1-14.5,0.3-21.9,0.1
		c-1-0.1-2.3-0.4-2.7-1.5c-0.2-0.3-0.2-1,0-1.4c0.3-0.5,0.8-0.7,1.3-0.7c0.4,0.1,0.7,0.4,0.9,0.7c0,0.3-0.3,0.6-0.4,0.9
		c0,0.1,0.1,0.3,0.3,0.3c0.3-0.1,0.6-0.5,0.7-0.9c0-0.2,0.1-0.4-0.1-0.6c-0.2-0.5-0.7-0.9-1.2-1c-0.6-0.1-1.3,0.1-1.7,0.6
		c-0.6,0.5-0.6,1.5-0.4,2.1c0.4,1.1,1.6,1.9,2.7,2.1l24.8,0.1c2.4,0.1,5.1-0.3,7.6,0.2c0.9,0.3,1.8,0.9,2.1,2c0,0.1-0.1,0-0.2,0
		c-2.1-1.3-4.6-1.8-7.3-1.5c-1-0.1-2,0.3-2.8,0.6c-0.5,0.1-0.9-0.1-1.3-0.4c-0.9-0.9-2.5-0.8-3.7-0.4c0,0.1,0,0.2,0,0.2
		c1.3-0.1,2,0.9,3.1,1.1c0.3,0.1,0.4-0.3,0.7,0c-1.2,0.6-2.3,1.2-3.5,1.6c-0.3-0.1-0.6-0.4-0.9-0.7C21,39.9,20.1,40,19.4,40
		c-0.3,0.1-0.4-0.1-0.6,0c0.2,0.4,0.7,0.6,1.1,0.9c0.6,0.3,1.4,0,2,0.3c-0.2,0.2-0.3,0.3-0.5,0.3c-1.2,0.4-2.2,1.5-3.5,1.5
		c-1.4,0.2-2.8-0.3-3.8-1.2c-0.4-1-1.5-1.5-2.6-1.5c-0.1,0.1-0.2,0.1-0.2,0.2c0.6,0.3,1,1,1.5,1.4c0.3,0.4,1,0,1.4,0.5
		c0.5,0.3,1.1,0.6,1.6,0.7c0.4,0.2,0.9,0.3,1.3,0.3L17,43.5c-2.3,0.8-5,0.9-7.6,0.8c-0.8,0-1.5-0.3-2.3-0.3c0.2,0.2,0.3,0.3,0.6,0.3
		c-0.2,0.1-0.4,0.2-0.7,0.2c-0.3,0.1-0.7,0.1-0.9,0.3c-0.4,0-0.8,0.1-1.1,0.3C4.5,45.5,4,46,3.5,46.3c0,0.1,0,0.3,0.1,0.3
		c0.5-0.2,1.1-0.1,1.6-0.3c0.9-0.1,1.3-1,2-1.4c0.7-0.6,1.7-0.4,2.6-0.3c0.5,0.1-0.1,0.3,0.1,0.7c0.2,0.2,0.3,0.4,0.7,0.3
		c0.1-0.1,0.1-0.1,0.2-0.2c0.2-0.2,0.1-0.4,0-0.7c0.3-0.3,0.9,0,1.2-0.1c0.9,0,2-0.3,2.9-0.3c0.2,0,0.3-0.2,0.5,0
		c-0.1,0.2-0.3,0.3-0.3,0.5c0.1,0.3,0.3,0.3,0.5,0.3c0.3-0.1,0.5-0.3,0.3-0.6c-0.1-0.2-0.3-0.2-0.3-0.3c0.5-0.3,1.1-0.3,1.7-0.6
		c0.3-0.1,0.8-0.2,1.1-0.3c0.3,0,0.6-0.3,0.9-0.2c-0.1,0.4-0.3,0.9-0.5,1.2c-0.4,1.4-0.7,3.2,0,4.4c0.1,0,0.1,0,0.2-0.1
		c-0.5-1.4-0.3-2.9,0.3-4.2c0.3-2.1,2.6-2.8,4.2-3.7l0.1,0.1c-0.4,1.1-1,2.2-0.9,3.6c0.1,0.3-0.1,0.4,0,0.6c0.4-0.3,0.7-0.8,0.9-1.2
		c0.2-1.2-0.5-2.6,0.7-3.4c2.1-0.9,4-1.9,6.5-1.9c0.1,0.1,0.3-0.1,0.3,0.1c-0.5,0.6-1.3,1.1-1.5,1.8c-0.9,1.1-0.8,3.1-0.4,4.4
		c0.3,0.8-0.4,1.2-0.8,1.9c-0.2,0.3-0.2,0.6-0.3,0.9l0.5,0.1c0.4-0.4,0.9-1,0.9-1.7c0.1,0.3,0.3,0.4,0.5,0.5
		c0.2-0.3-0.2-0.5-0.2-0.8c0.4-0.3,0.6,0.3,0.9,0.3c0.5,0.1,1,0.3,1.5,0.3l0.2-0.2c-0.6-0.9-1.7-1-2.7-1.1c-0.5-0.9-0.5-1.9-0.4-2.9
		c0.1-0.5,0.2-1.1,0.5-1.6c0.1-0.3,0.5-0.7,0.7-0.9c0.4-0.4,1-0.8,1.6-0.9h0.1c0,0.1,0,0.1,0,0.1c-0.7,0.5-0.8,1.3-1.2,2
		c-0.4,0.6-0.6,1.5-0.3,2.2c0.2,0.3,0.1,0.9,0.4,1.1c0.3-0.4,0.3-1,0.5-1.5c-0.1-0.9-0.6-1.6-0.1-2.5c0.3-0.6,0.8-0.9,1.4-1.1
		c1.4-0.1,2.7,0.6,3.9,1.1c0.3,0.2,0.7,0.3,0.8,0.7c0,0.7-0.4,1.4-0.9,1.7c-0.7,0.4-1.7,0.4-2.3,0c-0.3-0.4-0.5-1-0.4-1.5
		c0.3-0.3,0.7-0.6,1.1-0.4c0.3,0.1,0.5,0.3,0.8,0.3c0.2-0.1,0.2-0.3,0.1-0.4c-0.3-0.2-0.3-0.5-0.8-0.6c-0.5-0.1-1-0.1-1.4,0.3
		c-0.5,0.4-0.8,1.2-0.6,1.8c0.2,0.9,0.8,1.5,1.5,1.6c1.2,0.3,2.4-0.1,3.2-1.1c0.3-0.3,0.3-0.7,0.6-1.1c1.2,0.8,2.1,2.1,2.7,3.4
		c0,0.4,0.1,0.9,0,1.3l0.9,0.1c-0.1-0.2,0-0.4,0.1-0.6c0.3-1.7,1.4-3.1,2.7-4.2c0.4-0.3,0.3,0.3,0.4,0.5c0.3,0.9,1.3,1.6,2.2,2
		c1.1,0.2,2.1-0.1,2.7-0.9c0.3-0.6,0.8-1.5,0.2-2.1c-0.3-0.4-0.9-0.7-1.4-0.7c-0.7,0-1.1,0.4-1.4,0.9c0,0.2,0,0.4,0.2,0.5
		c0.1,0,0.3,0,0.3-0.1c0.1-0.3,0.3-0.6,0.7-0.8c0.3-0.2,0.6,0,0.9,0.2c0.3,0.3,0.3,0.6,0.3,1c-0.1,0.5-0.3,1-0.9,1.2
		c-0.8,0.3-1.8,0.2-2.5-0.3c-0.3-0.3-0.5-0.7-0.7-1.1c-0.1-0.4-0.2-0.8,0-1.2c1.1-0.7,2.3-1.2,3.7-1.3c0.5,0.1,1,0.4,1.4,0.9
		c1.2,1.2-0.3,2.9,0.6,4.3c0.3-0.1,0.3-0.4,0.4-0.7c0.3-0.9-0.1-2-0.3-2.8c-0.3-0.6-0.5-1-0.9-1.5c0.1-0.1,0.2-0.1,0.3-0.1
		c0.5,0.3,1.1,0.8,1.5,1.4c0.8,1.2,1.1,2.7,1,4.2c-0.2,0.8-1,1.1-1.6,1.4c-0.3,0.2-0.6,0.5-0.7,0.9c0.3,0.2,0.8,0,1-0.2
		c0.5-0.2,0.8-0.8,1.1-1.1c0.1,0,0,0.1,0.1,0.2c0,0.3-0.1,0.7,0.1,0.8c0.2-0.3,0.2-0.9,0.3-1.3c0.3,0.3,0.3,0.9,0.5,1.3
		c0.3,0.4,0.6,1.1,1.2,1.1c0.2-0.3,0-0.4-0.1-0.7c-0.1-0.6-0.6-0.9-0.9-1.5c-0.9-1.2-0.5-3.2-1.2-4.5c-0.3-0.8-0.8-1.3-1.4-1.9
		l0.1-0.1c1.3,0,2.3,0.4,3.4,0.6c1.4,0.7,3.4,0.5,4.1,2.4c0.3,1,0.8,2,1.5,2.7l0.1-0.1c0.2-0.3,0.2-0.7,0-0.9
		c-0.2-1.3-1.3-1.6-1.9-2.7l0.1-0.1c0.6,0.2,1.3,0.3,1.9,0.6c2.1,0.6,3.4,2.6,3.7,4.6c0,1.6-0.3,3-0.9,4.4c-0.1,0.2-0.4,0.4-0.2,0.6
		c0.3-0.2,0.3-0.5,0.5-0.8c0.9-1.5,1.3-3.3,0.9-5.1c0-0.3-0.4-0.6-0.3-0.9c0.1,0.2,0.3,0.2,0.4,0.3c0.2-0.1,0.3-0.1,0.5-0.3
		c0-0.2,0.1-0.3,0-0.4C65.6,44,65.3,44,65,44.1c-0.1,0.2-0.3,0.3-0.3,0.6c-0.3-0.4-0.5-1-0.9-1.4l0.1-0.1c1.1,0.4,2.2,0.9,3.3,1.3
		c0.3,0.2,0.5,0.3,0.9,0.3c1,0.4,2.1,0.5,3.2,0.8c0.8-0.1,1.4,0.3,2.1,0.1v-0.1l0,0c-0.3-0.3-0.9,0-1.2-0.3c-1.8-0.2-3.4-0.6-5-1.3
		c0-0.1,0.1-0.1,0.2-0.1c0.3-0.1,0.4-0.3,0.4-0.6c-0.1-0.2-0.3-0.3-0.6-0.3c-0.2,0.1-0.3,0.3-0.3,0.4c0,0.2,0.2,0.4,0.3,0.5
		c-0.1,0.1-0.2,0-0.3,0c-0.8-0.3-1.5-0.7-2.3-1c-0.3-0.1-0.5-0.3-0.8-0.3c-0.6-0.3-1.2-0.6-1.8-0.8c-1.6-0.9-3.4-1.3-5.1-2
		c-0.3-0.1-0.8-0.2-1.1-0.3c-0.6-0.2-1.3-0.3-1.9-0.5c-2.1-0.5-5-0.6-6.9,0.6c-0.3-0.1-0.5,0.3-0.6,0.1c0.5-1.5,2.1-1.9,3.5-1.9
		c10.2-0.1,19.8-0.2,29.9-0.3c1.2,0,2.3-0.4,2.9-1.5C82.9,36.4,83,35.3,82.7,34.7 M62,30.6h-2.6c0-0.1-0.1-0.1-0.1-0.2
		c0.9-0.3,1.7-0.8,2.6-1l0.1,0.3L62,30.6L62,30.6z M59.5,28.6c0.2-0.2,0.3-0.4,0.4-0.7c0-0.3-0.1-0.3-0.3-0.5
		c0.2-0.2,0.4-0.1,0.7-0.2c0.6,0.4,1.3,1,1.5,1.7l0,0c-1,0.4-2.1,0.9-3.1,1.1l0,0l0,0C58.9,29.5,59.1,29,59.5,28.6 M50.4,22.5
		c0.8,1.4,1.8,2.9,3.3,3.4c0.9,0.7,1.8,1.5,2.9,0.9c0.6-0.2,0.6,0.7,0.9,0.9c0.3,0.9-0.3,1.6-0.4,2.5c-0.1,0.3-0.3,0.5-0.6,0.6
		c-0.4,0.1-0.8,0.3-1.2,0.3c-3.3,1.3-6.8,2.7-9.4,5.2c0.2-0.3,0.3-0.7,0.3-1.1c-0.1-0.3,0-0.9-0.3-1.1c-0.1-0.2-0.3-0.5-0.2-0.7
		l3.2-2.1c0.8-0.3,1.4-1.5,1.4-3v-8.3L50.4,22.5z M49.9,28.7c-0.1,1-0.4,1.9-1.1,2.4l-6.7,4.3l0,0c-0.2,0.1-0.3,0.2-0.5,0.2
		c-0.2,0-0.3-0.1-0.5-0.2l-6.7-4.3c-0.7-0.5-1-1.4-1.2-2.4v-3.4c0.1,0.1,0.1,0.1,0.2,0c0.7-0.4,0.4-1.5,0.4-2.1
		c0.2-0.8-0.4-1.2-0.6-1.9l0,0v-5.9h2.7c0.2,0.1,0.3,0.3,0.6,0.3l0.2-0.3h13.2L49.9,28.7L49.9,28.7z M31.7,18.9
		c0.2-0.6,0.3-1.1,0.9-1.5c0.1,0.1,0.1,0.1,0.2,0.2l0,0v2.8C32.4,19.9,31.4,19.6,31.7,18.9 M36.5,35.9c-2.7-2-5.5-3.8-8.5-5.1
		c0.3-0.8,0.5-1.4,0.6-1.5c0.1-0.4,0.2-0.8,0.2-1.2c0.2-0.5,0.2-1.2,0.2-1.7c0.1-0.9,0.5-1.6,0.8-2.4c0.2-0.3,0.3-0.8,0.4-1.2
		c0.2-0.5,0.2-0.9,0.5-1.4c0.8,0.5,1.5,0.5,2,1.4v5.7c0,1.4,0.6,2.6,1.4,3l2.7,1.8C36.9,34.1,36.3,34.9,36.5,35.9L36.5,35.9z
		 M40.5,41.2c-0.9-1.8-2-3.3-3.3-4.7c-0.1-0.3-0.3-0.4-0.2-0.7c0.5-0.4,0.6-1.4,0.3-2c-0.1-0.2-0.2-0.3-0.2-0.4L37,33.3l3.9,2.5
		c0.2,0.2,0.3,0.3,0.6,0.3c0.3,0,0.4-0.1,0.6-0.3l1.3-0.9c-0.9,1.5,0.6,3.5-0.6,4.9v0.1c-0.3,0.4-0.5,0.9-1,1.2
		c-0.6-0.3-0.9-0.9-1.2-1.5C40,39.1,40,38,40.3,37.2c0.3-0.8-0.2-1.4-0.3-2.1L39.8,35c-0.6,0.8-0.9,2.1-0.3,3
		c0.3,0.4,0.3,1.1,0.7,1.5c0.3,0.8,0.7,1.2,1.1,1.9c0.1,0.3-0.2,0.3-0.3,0.4C40.6,41.8,40.7,41.4,40.5,41.2 M42.2,44.1
		c-0.1,0.3-0.3,0.6-0.3,0.9l-0.1,0.1c0.1-0.4-0.3-0.6-0.2-1c-0.2-0.3-0.2-0.7-0.3-1c-0.3-0.4,0.2-0.6,0.3-0.9
		c0.3,0.2,0.5,0.5,0.8,0.8C42.4,43.4,42.1,43.7,42.2,44.1 M42,41.7c0.9-1.1,1.5-2.3,1.8-3.8c0.2-0.2,0.1-0.4,0.3-0.6
		c-0.1-0.4,0.3-0.9,0-1.1c0.2-0.6-0.8-1.1-0.2-1.5l-0.1,0.1l1.6-1c-0.3,0.6-0.4,1.5-0.2,2.1c0.1,0.4,0.4,1,0.1,1.5
		c-1.2,1.5-1.9,3.3-2.7,5C42.3,42.3,42.1,42,42,41.7"/>
	<path d="M69.8,42.5c-1.4-0.3-2.7,0.2-3.7,1.2c-0.1,0.1,0,0.1,0.1,0.2c0.1,0,0.3-0.1,0.3-0.1c1.3-0.1,2.5-0.3,3.4-1.1
		C70,42.6,69.8,42.6,69.8,42.5"/>
	<path d="M65.3,43.6c0.3-0.2,0.5-0.3,0.4-0.7c-0.1-0.3-0.6-0.3-0.8-0.2c-0.1,0.2-0.3,0.3-0.2,0.4C64.9,43.5,65,43.6,65.3,43.6"/>
	<path d="M16.3,43.3c0.1,0.2,0.2,0.3,0.3,0.4c0.1,0,0.3,0,0.4-0.1c0.2-0.1,0.2-0.3,0.2-0.5c-0.2-0.3-0.3-0.2-0.6-0.2
		C16.4,42.9,16.3,43,16.3,43.3"/>
	<path d="M12.7,44.8v-0.2C11.7,44,11,43,9.7,43c-0.2,0.1,0,0.2,0,0.3c0.6,0.3,1,0.8,1.4,1.3C11.5,44.8,12.1,45,12.7,44.8"/>
	<path d="M73.3,42.9c-1,0.4-1.9,1.5-2.3,2.4c0.2,0.2,0.3-0.1,0.5-0.1c1-0.3,1.5-1.5,2.1-2.3C73.6,42.9,73.4,42.9,73.3,42.9"/>
	<path d="M18,43.5c0.1,0.2,0.3,0.3,0.4,0.3c0.2-0.2,0.3-0.2,0.3-0.5c-0.1-0.2-0.3-0.3-0.5-0.3C18.1,43.1,17.9,43.2,18,43.5"/>
	<path d="M76.5,44.6c0.3-0.3,0.1-0.9,0.3-1.2l-0.2-0.2c-0.8,0.3-1.3,1.2-1.7,2c-0.1,0.3-0.4,0.5-0.3,0.8
		C75.6,45.9,76,45.2,76.5,44.6"/>
	<path d="M4,43.7c-0.1,0.2,0,0.5,0.2,0.6s0.4,0,0.6-0.1c0.2-0.2,0.1-0.3,0-0.6C4.6,43.4,4.2,43.5,4,43.7"/>
	<path d="M3.4,44.3c0-0.1-0.1-0.3-0.1-0.3c-0.1-0.2-0.3-0.3-0.6-0.2c-0.2,0.1-0.3,0.3-0.3,0.5c0.2,0.3,0.3,0.4,0.6,0.3
		C3.3,44.6,3.3,44.5,3.4,44.3"/>
	<path d="M5.4,44.4c0.2,0.2,0.4,0.4,0.8,0.3s0.3-0.4,0.2-0.6C6.2,44,5.9,43.9,5.7,44C5.5,44,5.4,44.2,5.4,44.4"/>
	<path d="M10,44.2c-0.2,0.1-0.3,0.2-0.3,0.3c-0.2,0.2,0.1,0.3,0.2,0.4c0.1,0,0.3,0.1,0.5-0.1c0.2-0.1,0.2-0.3,0.2-0.5
		C10.4,44.2,10.2,44.3,10,44.2"/>
	<path d="M78.7,44.2c-0.2,0.1-0.4,0.3-0.3,0.5C78.5,45,78.7,45,79,45c0.2,0,0.3-0.3,0.3-0.4C79.3,44.3,79,44.2,78.7,44.2"/>
	<path d="M74,44.3c-0.2,0.1-0.3,0.3-0.4,0.4c0.1,0.3,0.4,0.5,0.8,0.3c0.1-0.1,0.3-0.3,0.3-0.4C74.5,44.5,74.4,44.3,74,44.3"/>
	<path d="M77.6,45.2c0.2-0.1,0.3-0.3,0.3-0.4c-0.1-0.3-0.5-0.3-0.8-0.2c-0.2,0.2-0.3,0.3-0.1,0.5C77.2,45.2,77.3,45.3,77.6,45.2"/>
	<path d="M4.1,45.2c-0.2-0.2-0.3-0.3-0.6-0.3c-0.2,0.1-0.3,0.3-0.3,0.5c0.1,0.3,0.3,0.3,0.6,0.3C4.1,45.7,4.2,45.4,4.1,45.2"/>
	<path d="M73.1,46.1c0.3-0.1,0.4-0.3,0.3-0.7c-0.2-0.3-0.7-0.4-0.9-0.1c-0.2,0.1-0.1,0.4,0,0.5C72.7,46,72.8,46.1,73.1,46.1"/>
	<path d="M17.5,46.2c0.1-0.2,0.3-0.2,0.3-0.5c-0.2-0.2-0.3-0.4-0.5-0.3c-0.2,0.1-0.2,0.2-0.3,0.3c-0.1,0.3,0.1,0.3,0.2,0.5
		C17.3,46.3,17.5,46.3,17.5,46.2"/>
	<path d="M78.3,45.5c-0.2,0.1-0.2,0.2-0.3,0.3c0,0.3,0,0.4,0.3,0.6c0.2,0.1,0.4,0,0.6-0.1c0-0.2,0.2-0.2,0.1-0.4
		C78.8,45.6,78.5,45.5,78.3,45.5"/>
	<path d="M76.7,46.6c0-0.2,0.2-0.1,0.3-0.1c0.2-0.1,0.5-0.3,0.3-0.5c-0.1-0.2-0.2-0.3-0.3-0.3c-0.2-0.1-0.3,0.1-0.4,0.2
		c-0.4,0.3,0.3,0.6-0.1,0.9c-0.4,0-1.1-0.1-1.4,0.3c0.2,0.2,0.5,0.2,0.7,0.3c0.7,0.7,1.6,0.9,2.6,0.9v-0.2
		C77.7,47.5,77.3,47,76.7,46.6"/>
	<path d="M65.9,45.9c-0.1,0.3,0.1,0.4,0.3,0.6c0.2,0.1,0.4,0.1,0.6-0.1c0-0.1,0.2-0.3,0.1-0.4C66.8,45.6,66.1,45.5,65.9,45.9"/>
	<path d="M9.9,46.9c0-0.4-0.5-0.5-0.8-0.3c0,0.1-0.2,0.3-0.1,0.4c0.1,0.2,0.3,0.3,0.4,0.3C9.8,47.3,9.8,47.1,9.9,46.9"/>
	<path d="M9.8,48.4c-0.1,0.3-0.5,0.5-0.4,0.8c0.9-0.1,1.6-0.9,2.1-1.7c0.1-0.3,0.5-0.6,0.5-0.9h-0.2C11,47.1,10.3,47.6,9.8,48.4"/>
	<path d="M65.3,46.7c-0.1,0.2-0.3,0.4,0,0.6c0.1,0.1,0.3,0.3,0.5,0.2c0.2-0.1,0.4-0.3,0.4-0.6C66.1,46.6,65.6,46.4,65.3,46.7"/>
	<path d="M67.2,47.7c0.1,0,0.2,0,0.3,0.1c0.3-0.1,0.4-0.3,0.4-0.6c-0.1-0.3-0.4-0.3-0.7-0.3c-0.2,0-0.3,0.3-0.3,0.3
		C66.8,47.4,66.9,47.5,67.2,47.7"/>
	<path d="M15.9,47.1c-0.2-0.2-0.3-0.4-0.6-0.3c-0.1,0.1-0.3,0.3-0.3,0.5c0.1,0.2,0.3,0.3,0.5,0.3C15.8,47.5,15.9,47.3,15.9,47.1"/>
	<path d="M16.7,47.3c0.1,0.2,0.3,0.3,0.4,0.3c0.3-0.1,0.4-0.2,0.5-0.4c-0.1-0.3-0.3-0.3-0.6-0.3C16.9,46.9,16.7,47.1,16.7,47.3"/>
	<path d="M73.3,48.9c-0.3-0.8-0.9-1.4-1.5-1.9c-0.2-0.1-0.4-0.3-0.7-0.2c0.3,0.8,0.7,1.5,1.3,2.1c0.3,0.1,0.7,0.5,1.1,0.3
		C73.7,49.2,73.4,49.1,73.3,48.9"/>
	<path d="M73.8,47c-0.2,0.1-0.4,0.1-0.5,0.3c-0.2,0.3,0.1,0.4,0.2,0.6c0.3,0.1,0.6,0.1,0.7-0.2c0.1-0.2,0.2-0.3,0.1-0.6
		C74.1,47.1,73.9,47,73.8,47"/>
	<path d="M20,47.8c-0.2-0.1-0.3-0.3-0.5-0.2c-0.2,0.2-0.4,0.2-0.3,0.5c0.1,0.3,0.3,0.3,0.6,0.3C20.1,48.3,20,48.1,20,47.8"/>
	<path d="M68.5,51.3c-0.1-0.7-0.3-1.3-0.7-1.8l-0.7-0.8c-0.3-0.1-0.4-0.5-0.7-0.3c0,0.1,0,0.2,0.1,0.3c0.4,1.1,0.7,2.3,1.8,3.2h0.1
		C68.5,51.7,68.4,51.5,68.5,51.3"/>
	<path d="M23.4,48.7C23.4,48.7,23.3,48.7,23.4,48.7l-1.3-0.3c-0.8-0.1-1.5,0.3-2.2,0.5c-0.1,0-0.2,0.2-0.2,0.3
		C20.9,49.9,22.3,49.5,23.4,48.7"/>
	<path d="M17.5,48.6c-1.4,0.2-2.8,0.9-3.3,2.2c0.3,0.2,0.3-0.1,0.6-0.2c1.1-0.3,1.9-1.3,2.7-1.9L17.5,48.6L17.5,48.6z"/>
	<path d="M65.7,49.6c-0.1,0.1-0.3,0.1-0.3,0.3c0,0.2,0,0.4,0.3,0.5c0.1,0.2,0.3,0.2,0.5,0c0.2-0.1,0.3-0.3,0.2-0.5
		C66.1,49.7,66,49.7,65.7,49.6"/>
	<path d="M63.2,50.7c0.3-0.1,0.8-0.3,0.9-0.7c-0.1-0.1-0.3-0.1-0.3,0C63,49.8,62,50,61.3,50.1c-0.1,0.2-0.3,0.1-0.4,0.3
		C61.6,50.7,62.4,51,63.2,50.7"/>
	<path d="M17.5,50.8c-0.1-0.3-0.3-0.4-0.5-0.4c-0.2,0.1-0.3,0.1-0.4,0.3c-0.1,0.2,0.1,0.3,0.1,0.4c0.2,0.1,0.3,0.2,0.5,0.1
		C17.4,51.2,17.5,50.9,17.5,50.8"/>
	<path d="M18.7,51.5c0.2-0.1,0.3-0.3,0.3-0.5c-0.1-0.2-0.3-0.4-0.6-0.4c-0.1,0.1-0.3,0.1-0.3,0.3c-0.1,0.2,0,0.3,0.1,0.5
		C18.3,51.4,18.5,51.6,18.7,51.5"/>
	<path d="M64.9,51c-0.1,0.2-0.3,0.3-0.2,0.5c0.1,0.1,0.1,0.3,0.3,0.3c0.2,0.1,0.4,0.1,0.6-0.1c0.1-0.2,0.2-0.3,0.2-0.5
		C65.6,50.9,65.2,50.7,64.9,51"/>
	<path d="M66.4,51c-0.3,0.1-0.4,0.4-0.3,0.7c0.1,0.1,0.2,0.3,0.3,0.2c0.3,0.1,0.4-0.2,0.6-0.3c0.1-0.1,0-0.3-0.1-0.3
		C66.7,51.2,66.6,51,66.4,51"/>
	<path d="M17.9,52.7c0.2-0.2,0.3-0.4,0.3-0.7c-0.2-0.3-0.4-0.3-0.7-0.3c-0.3,0.2-0.3,0.5-0.3,0.8C17.2,52.7,17.5,52.7,17.9,52.7"/>
	<path d="M17.4,54L17.4,54c0.4,0.3,0.9,0,1.2-0.1c0.7-0.4,0.9-1.3,0.9-2C18.9,52.6,18,53.2,17.4,54"/>
	<path d="M61.2,52.1c-0.2,0.1-0.3,0.2-0.3,0.3c-0.1,0.2-0.1,0.4,0.1,0.5c0.2,0.1,0.4,0.2,0.6,0c0.1-0.1,0.3-0.3,0.2-0.4
		C61.6,52.3,61.4,52.1,61.2,52.1"/>
	<path d="M22,53.3c-0.3-0.3-0.6-0.9-0.9-1.1c-0.1,0-0.1,0-0.2,0.1c0.3,0.9,0.2,2,0.8,2.7c0.3,0.3,0.4,0.8,0.9,0.7
		c-0.2-0.6,0-1.5-0.3-2.1C22.2,53.5,21.9,53.5,22,53.3"/>
	<path d="M62.5,52.4c-0.1,0.1-0.3,0.2-0.3,0.4c0.2,0.1,0.3,0.2,0.5,0.3c0.1-0.1,0.3-0.2,0.3-0.3C63,52.4,62.7,52.3,62.5,52.4"/>
	<path d="M64.6,52.7h-0.2c-0.1,1,0.6,1.8,1.4,2.4h0.1c0.1,0.1,0.2-0.1,0.2-0.2C66.1,53.9,65.3,53.3,64.6,52.7"/>
	<path d="M63.9,54.6c0.1-0.2,0.3-0.3,0.3-0.5c-0.1-0.3-0.3-0.4-0.6-0.3c-0.1,0.1-0.4,0.3-0.3,0.5C63.2,54.7,63.7,54.7,63.9,54.6"/>
	<path d="M62.4,54.2c-0.9,0.4-1.7,1.4-2,2.3c0,0.1-0.1,0.3,0.1,0.4c0.7-0.7,1.6-1.2,2-2.1C62.4,54.5,62.8,54.2,62.4,54.2"/>
	<path d="M63.8,55.2c-0.2,0.1-0.3,0.2-0.3,0.4c0.2,0.2,0.3,0.3,0.6,0.3c0.2-0.1,0.3-0.3,0.3-0.4C64.3,55.3,64.1,55.1,63.8,55.2"/>
	<path d="M37.9,10.1h7.5c0.3,0,0.6-0.3,0.6-0.6c0-0.3-0.3-0.6-0.6-0.6h-7.5c-0.3,0-0.6,0.3-0.6,0.6C37.2,9.8,37.6,10.1,37.9,10.1
		 M45.2,9.1h0.3c0.5,0,0.5,0.9,0,0.9C45.1,9.9,44.5,9.1,45.2,9.1 M42.1,9.1h0.8c0.4,0,1.1,0.9,0.3,0.9h-0.8
		C42,9.9,41.3,9.1,42.1,9.1 M39,9.1h0.8c0.4,0,1.1,0.9,0.3,0.9h-0.8C38.9,9.9,38.3,9.1,39,9.1"/>
	<path d="M46.3,20.7c0.3,0,0.8,0.3,0.8-0.1c0-0.5-0.4-0.3-0.8-0.3c-0.3,0-0.8-0.2-0.8,0.3C45.5,20.9,46,20.7,46.3,20.7"/>
	<path d="M45.4,21.6L44.8,24l1.5-0.5l1.5,0.5l-0.4-2.3l1,0.3l-0.3-1.2l0.3-1.3l-1.1,0.3l0.6-2.1l-1.5,0.5l-1.5-0.5l0.5,2.1l-1.1-0.2
		l0.3,1.2L44.2,22L45.4,21.6z M46.2,19.7c0.3,0.9,1-0.1,1,0.9c0,0.3,0,0.9-0.3,0.9h-1.1c-0.5,0-0.5-0.3-0.5-0.9
		C45.3,19.8,46,20.4,46.2,19.7"/>
	<polygon points="41.9,20.1 42,19.9 41.8,19.9 41.6,19.7 41.5,19.9 41.2,19.9 41.3,20.1 41.2,20.4 41.4,20.4 41.4,20.6 41.6,20.4 
		41.8,20.6 41.8,20.4 42.1,20.4 	"/>
	<polygon points="40.3,21.8 40.3,22.1 40.5,21.9 40.7,22.1 40.7,21.8 41,21.7 40.8,21.6 40.9,21.4 40.6,21.4 40.5,21.1 40.4,21.4 
		40.1,21.4 40.2,21.6 40,21.7 	"/>
	<polygon points="42.1,21.4 41.9,21.6 42.2,21.6 42.2,21.9 42.4,21.7 42.6,21.9 42.6,21.6 42.9,21.6 42.7,21.4 42.8,21.1 42.5,21.2 
		42.4,21 42.3,21.2 42,21.1 	"/>
	<polygon points="42.8,22.6 42.6,22.6 42.5,22.4 42.4,22.6 42.3,22.6 42.4,22.7 42.3,22.8 42.4,22.8 42.4,23 42.5,22.8 42.7,23 
		42.7,22.8 42.8,22.8 42.7,22.7 	"/>
	<polygon points="41.7,22.9 41.2,23 41,22.6 40.7,23 40.3,22.9 40.6,23.4 40.2,23.7 40.6,23.8 40.6,24.2 41,24 41.4,24.2 41.4,23.8 
		41.8,23.7 41.5,23.4 	"/>
	<polygon points="40,5.4 39.8,7.8 41.5,6.2 43.3,7.8 43.1,5.4 45.5,5 43.6,3.6 44.7,1.5 42.4,2.2 41.5,0 40.6,2.2 38.3,1.5 
		39.5,3.6 37.6,5 	"/>
	<path d="M30.4,50.7l0.3,1.5c0.1,0.4,0.3,0.6,0.5,0.7c0.4,0.2,0.9,0.1,1.1,0c0.3-0.1,0.7-0.3,0.9-0.5c0.2-0.3,0.2-0.6,0.1-0.9L33,50
		c-0.1-0.3,0-0.3,0.3-0.4v-0.1l-1.1,0.3v0.1c0.4-0.1,0.5,0,0.6,0.3l0.3,1.3c0.1,0.3,0.2,0.9-0.7,1.1c-0.7,0.2-0.9-0.4-0.9-0.7
		l-0.3-1.5c-0.1-0.3,0.1-0.4,0.4-0.5v-0.1L30,50.2v0.1C30.1,50.3,30.3,50.2,30.4,50.7"/>
	<path d="M34.8,50.9l0.3,0.1c0.3,0.1,0.6,0.1,0.7,0.4c0,0.1,0.1,0.5-0.5,0.6c-0.7,0.2-1-0.3-1.3-0.7h-0.2l0.3,1h0.2
		c0-0.1,0-0.2,0.1-0.2c0.2,0,0.4,0.1,0.9-0.1c0.9-0.2,1.1-0.8,1-1.2c-0.1-0.4-0.5-0.6-0.8-0.7L34.7,50c-0.4-0.1-0.6-0.2-0.6-0.3
		c-0.1-0.3,0.2-0.4,0.4-0.5c0.6-0.2,1,0.3,1.2,0.6h0.2l-0.2-0.9h-0.2c0,0.1,0,0.2-0.2,0.2c-0.2,0-0.4-0.1-0.9,0
		c-0.9,0.3-1,0.9-0.9,1.1C33.8,50.4,33.9,50.7,34.8,50.9"/>
	<path d="M36.7,49.6c0-0.7,0.6-0.8,0.9-0.9l0.2,2.3c0,0.3-0.1,0.4-0.4,0.4v0.1l1.9-0.2v-0.1c-0.4,0-0.5,0-0.5-0.3l-0.3-2.3
		c0.3,0,0.9-0.1,1,0.6h0.2l-0.1-0.9l-3.1,0.3L36.7,49.6L36.7,49.6z"/>
	<path d="M41.7,51.3c-0.3-0.1-0.4-0.1-0.4-0.4v-0.9h0.2l1,1.4h0.9l0,0l1,0.2v-0.1c-0.2,0-0.4-0.1-0.4-0.3c0-0.1,0.1-0.3,0.3-0.5
		l1.2,0.2c0.1,0.2,0.2,0.5,0.2,0.6c0,0.2-0.1,0.2-0.4,0.1v0.1l1.6,0.2v-0.1c-0.3,0-0.3-0.2-0.5-0.7l-0.9-2.4h-0.2l-1.5,2.2
		c-0.2,0.3-0.3,0.4-0.5,0.4c-0.1,0-0.1,0-0.2-0.1l-1-1.3c0.3-0.1,0.9-0.2,0.9-0.8c0-0.8-1.1-0.8-1.5-0.8h-1.7v0.1
		c0.3,0,0.4,0,0.4,0.4v2c0,0.3-0.1,0.3-0.4,0.4v0.1L41.7,51.3L41.7,51.3L41.7,51.3z M45.1,49.5l0.4,1.1l-1-0.1L45.1,49.5z
		 M41.3,48.8c0-0.2,0-0.2,0.3-0.2c0.4,0,0.6,0.2,0.6,0.6c0,0.6-0.3,0.7-0.9,0.7V48.8z"/>
	<path d="M50.3,51.6h-0.2c-0.3,0.4-0.7,0.8-1.5,0.6c-0.3-0.1-0.4-0.1-0.4-0.3l0.3-2.1c0.1-0.3,0.3-0.3,0.6-0.3v-0.1L47.4,49v0.1
		c0.3,0.1,0.4,0.1,0.3,0.4l-0.3,2.1c-0.1,0.3-0.2,0.3-0.5,0.3v0.1l3,0.5L50.3,51.6z"/>
	<path d="M50.1,52.6l1.8,0.3v-0.1c-0.3-0.1-0.5-0.2-0.4-0.4l0.4-2.1c0.1-0.3,0.3-0.3,0.5-0.2v-0.1l-1.8-0.3v0.1
		c0.3,0.1,0.4,0.1,0.4,0.4l-0.4,2.1C50.6,52.6,50.4,52.6,50.1,52.6L50.1,52.6z"/>
	<path d="M52,53L52,53l1,0.2V53c-0.2,0-0.4-0.1-0.4-0.3c0-0.1,0.1-0.3,0.3-0.5l1.2,0.1c0.1,0.2,0.2,0.5,0.2,0.6
		c0,0.2-0.1,0.2-0.4,0.1v0.1l1.7,0.2v-0.1c-0.3,0-0.3-0.2-0.5-0.7l-0.9-2.4h-0.2l-1.4,2.2C52.4,52.8,52.3,53,52,53 M53.7,51.2
		l0.4,1.1l-1-0.1L53.7,51.2z"/>
	<path d="M40.6,18.8v0.3c0,0.1,0.1,0.2,0.2,0.2h1.1c0.1,0,0.2-0.1,0.2-0.2v-0.3c0.2-0.1,0.3-0.3,0.3-0.5c0-1-0.6-0.1-0.9-0.9
		c-0.3,0.8-0.9,0.1-0.9,0.9C40.4,18.5,40.5,18.7,40.6,18.8 M41.2,17.9c0.3,0,0.8-0.1,0.8,0.4c0,0.3-0.4,0.2-0.7,0.2
		c-0.3,0-0.7,0.2-0.7-0.2C40.6,17.8,41,17.9,41.2,17.9"/>
	<path d="M51.3,31.1c0.3,0,0.5-0.2,0.5-0.4c0-0.3-0.2-0.4-0.5-0.4c-0.3,0-0.5,0.2-0.5,0.4C50.9,30.9,51.1,31.1,51.3,31.1"/>
	<path d="M49.1,16.3c0.1,0,0.3-0.1,0.3-0.3l-0.3-0.4c0,0-0.3,0.3-0.3,0.4C48.9,16.2,49,16.3,49.1,16.3"/>
	<path d="M33.7,16.3c0.1,0,0.3-0.1,0.3-0.3l-0.3-0.4c0,0-0.3,0.3-0.3,0.4C33.5,16.2,33.6,16.3,33.7,16.3"/>
	<path d="M37.6,16.3c0.1,0,0.3-0.1,0.3-0.3l-0.3-0.4c0,0-0.3,0.3-0.3,0.4C37.3,16.2,37.5,16.3,37.6,16.3"/>
	<path d="M41.4,16.3c0.1,0,0.3-0.1,0.3-0.3l-0.3-0.4c0,0-0.3,0.3-0.3,0.4C41.2,16.2,41.3,16.3,41.4,16.3"/>
	<path d="M45.3,16.3c0.1,0,0.3-0.1,0.3-0.3l-0.3-0.4c0,0-0.3,0.3-0.3,0.4C45,16.2,45.2,16.3,45.3,16.3"/>
	<path d="M33.5,21.3c0,0.2,0.1,0.3,0.3,0.3c0.1,0,0.3-0.1,0.3-0.3c0-0.1-0.3-0.4-0.3-0.4L33.5,21.3"/>
	<path d="M33.5,26.4c0,0.2,0.1,0.3,0.3,0.3c0.1,0,0.3-0.1,0.3-0.3c0-0.1-0.3-0.4-0.3-0.4L33.5,26.4"/>
	<path d="M34.1,30.5c0,0.2,0.1,0.3,0.3,0.3c0.1,0,0.3-0.1,0.3-0.3c0-0.1-0.3-0.4-0.3-0.4L34.1,30.5"/>
	<path d="M37.3,32.7c0,0.2,0.1,0.3,0.3,0.3c0.1,0,0.3-0.1,0.3-0.3c0-0.1-0.3-0.4-0.3-0.4L37.3,32.7"/>
	<path d="M49.1,21.3c0,0.2,0.1,0.3,0.3,0.3c0.1,0,0.3-0.1,0.3-0.3l-0.3-0.4C49.4,20.9,49.1,21.2,49.1,21.3"/>
	<path d="M49.1,26.4c0,0.2,0.1,0.3,0.3,0.3c0.1,0,0.3-0.1,0.3-0.3L49.4,26C49.4,26,49.1,26.4,49.1,26.4"/>
	<path d="M48.4,30.5c0,0.2,0.1,0.3,0.3,0.3c0.1,0,0.3-0.1,0.3-0.3L48.7,30L48.4,30.5"/>
	<path d="M45.3,32.7c0,0.2,0.1,0.3,0.3,0.3c0.1,0,0.3-0.1,0.3-0.3l-0.3-0.4C45.5,32.3,45.3,32.6,45.3,32.7"/>
	<path d="M41.3,34.9c0,0.2,0.1,0.3,0.3,0.3c0.1,0,0.3-0.1,0.3-0.3l-0.3-0.4L41.3,34.9"/>
	<path d="M45.1,28.4c-0.3,0.4-0.3,1-0.8,1.3c-0.2,0.1-0.2,0.3-0.2,0.4l0.1,0.1c0.3-0.2,0.9-0.3,0.9-0.8c0.1-0.3,0.3-0.4,0.4-0.6
		c0.3-0.1,0.4,0.1,0.5,0.3c-0.1,0.3-0.3,0.6-0.7,0.8c-0.1,0.1,0,0.1,0,0.2c0.1,0.2,0.3,0.1,0.5,0.1c0.4-0.3,0.6-0.8,0.9-0.9
		c0.1,0.3-0.5,0.3-0.2,0.6c0.3-0.1,0.5,0,0.7-0.3c-0.2-0.4,0.6-0.6,0.1-0.9c0-0.3,0.4-0.5,0.3-0.9c-0.2-0.4-0.6-0.4-0.8-0.8
		c0.2-0.1,0.3-0.1,0.5,0c0.1,0.1,0.2,0.1,0.3,0.1l0.2-0.4c0,0-0.2-0.2-0.3-0.2c-0.4,0.1-0.9,0.2-1.1,0.5c0,0.3,0.2,0.5,0.4,0.6
		c0.2-0.1,0.2,0.1,0.3,0.2c0,0.1-0.1,0.3-0.2,0.3c-0.3-0.3-0.8,0.1-1-0.3c0.1-0.3,0.3-0.8,0-1.1c0-0.1,0.2-0.2,0.1-0.3
		c-0.1-0.3-0.5-0.1-0.7-0.1c-0.3-0.1-0.7,0.2-0.9,0.4c0,0.1,0.1,0.3,0.2,0.3c0.1,0,0.2,0,0.2,0.1l-0.3,0.2c0.1,0.1,0.1,0.2,0.1,0.3
		c-0.2,0.1-0.3-0.2-0.4-0.3c0-0.2,0-0.5-0.3-0.6L44,26.7c-0.1,0.1-0.1,0.3-0.1,0.4c0,0.2,0.1,0.4,0.1,0.4S44.9,28.1,45.1,28.4"/>
	<path d="M30.1,30.5c-0.3,0-0.5,0.2-0.5,0.4c0,0.3,0.3,0.4,0.5,0.4c0.3,0,0.5-0.2,0.5-0.4C30.6,30.6,30.4,30.5,30.1,30.5"/>
	<path d="M4.7,45.4c0,0.3,0.2,0.4,0.5,0.4c0.3,0,0.5-0.2,0.5-0.4c0-0.3-0.2-0.4-0.5-0.4C4.9,44.9,4.7,45.2,4.7,45.4"/>
	<path d="M27,53.6L27,53.6h1v-0.1c-0.2,0-0.4,0-0.4-0.2c0-0.1,0.1-0.3,0.2-0.6l1.2-0.2c0.1,0.2,0.3,0.4,0.3,0.5
		c0,0.2-0.1,0.2-0.4,0.3v0.1l1.7-0.2v-0.1c-0.3,0-0.3-0.1-0.6-0.5l-1.5-2.1h-0.2L27.5,53C27.3,53.4,27.3,53.5,27,53.6 M28.2,51.4
		l0.7,1l-1,0.1L28.2,51.4z"/>
	<path d="M29.9,48.9c-0.4-0.1-0.9,0.3-1.3,0.1l-0.9,0.2c-0.1,0-0.2,0-0.3,0c-0.4-1,0.9-1.7,0.4-2.7c-0.3-0.6-1-1.1-1.8-1
		c-0.9-0.1-1.6,0.4-2.1,1c-0.6,1.3,0.2,2.7,0.3,3.9c-0.1,0.4,0.4,0.9,0,1.2c-0.8-0.6-1.9-0.9-2.9-0.6c-0.3,0.2-0.9-0.1-1,0.3
		c1.1,0.6,2.5,0.5,3.8,0.4c0.2-0.1,0.3-0.1,0.3,0c0.1,0.7-0.1,1.5,0.3,2.1c0.4,0.6,1.2,0.8,2,0.9c2.3-0.1,4.5-0.8,6.6-1.3
		c0.3,0,0.6-0.2,0.9-0.2c1.1-0.3,2.4-0.4,3.6-0.5c-0.5,0.7-0.9,1.5-1.1,2.3c-0.3,0.7,0.5,0.8,0.8,1.2c-0.8,0.3-1.4,0.8-2.1,1
		c-1.6-0.1-3,0.6-4.5,0.8c0,0.3,0.5,0.3,0.6,0.6c-0.1,0.3-0.3,0.3-0.5,0.4c0,0.2,0,0.2,0.2,0.2c0.2-0.2,0.5-0.1,0.6-0.3
		c0.5,0,0.9-0.2,1.5-0.2c0.4-0.2,0.9-0.2,1.3-0.5c0.5-0.2,0.9-0.5,1.4-0.7c0.8,0,1.5-0.3,2.1-0.3v0.2c-0.6,0.9-1.2,1.9-1.8,2.8
		c-0.1,0.2,0,0.3,0.2,0.4c0.3,0.1,0.7,0,1-0.2c0.5-0.9,1-1.8,1.5-2.7c0.2-0.9,0.8-1.4,1.5-2c0.1-0.1,0.3-0.2,0.3-0.1
		c-0.5,0.6-0.9,1.2-1.2,1.8c-0.2,0.7-0.3,1.6,0.3,2.2c0.3,0.3,0.8,0.2,1.2,0.2c1-0.5,2.3,0.3,3-0.7c0.4-0.1,0.5,0.4,0.8,0.7
		c0.4,0.2,0.9,0.6,1.3,0.3c0-0.3-0.3-0.5-0.5-0.8c-0.3-0.5-0.7-0.9-0.9-1.5c-0.1-0.3-0.3-0.6-0.4-0.9c0.4,0.2,0.9,0.4,1.4,0.5
		c0.4,0.2,0.9,0.2,1.4,0.4c0.3,0.4,0.9,0.7,1.3,0.9c0.6,0.3,1.4,0.3,2.1,0.6c0.3,0,0.6,0.3,0.8,0c-0.1-0.2-0.3-0.2-0.3-0.3
		c-0.1-0.3,0.4-0.2,0.6-0.4c-0.1-0.1-0.2-0.2-0.3-0.2c-0.3-0.2-1.3-0.3-1.5-0.4c-0.3-0.1-0.6-0.2-0.9-0.3c-1.5,0-2.4-1.4-3.6-1.9
		c0.3-0.3,0.7-0.4,0.9-0.9c0.3-0.3,0.3-0.9,0.1-1.4c-0.3-0.8-1.3-0.7-1.8-1.1l0.1-0.1c1-0.1,1.9,0.2,2.7,0.3
		c2.5,0.3,4.7,1.3,7.3,1.3c1.4,0,3.2,0.1,3.9-1.3c0.1-0.8,0.3-1.6,0.4-2.4c0.3-1.3,1.1-2.5,1-3.8c-0.3-0.8-0.9-1.4-1.7-1.6
		c-0.9-0.2-1.7-0.1-2.2,0.6c-0.9,0.8-0.3,2-0.3,3c0,0.2,0,0.3-0.2,0.4c-3.7-0.3-7.1-1.3-10.8-1.6c-0.9-0.2-1.7-0.1-2.5-0.3l-1-0.1
		c-3.2,0.1-6.3,0.3-9.3,1C31.2,48.6,30.6,48.6,29.9,48.9 M32.4,58.6l-0.3-0.3c0.2-0.3,0.6-0.1,0.9-0.3c0.7-0.2,1.5-0.4,2.1-0.3
		C34.3,58.3,33.3,58.4,32.4,58.6 M48.3,58.2c0.6,0.3,1.8,0.5,2.7,0.7c-0.1,0.3-0.7,0-0.6,0.5c-0.8-0.3-1.7-0.4-2.3-1.1
		C48.2,58.3,48.2,58.2,48.3,58.2 M24.4,47.3c0.1-0.4,0.2-0.9,0.6-1.3c0.6-0.3,1.5-0.3,2.1,0.1c0.2,0.1,0.3,0.3,0.4,0.5
		c0.1,0.4-0.1,0.9-0.3,1.2h-0.3c0-0.4,0-0.9,0.2-1.2c0-0.3-0.3-0.3-0.5-0.4c-0.4-0.2-0.9,0.1-1.1,0.3c-0.3,0.3-0.5,0.7-0.3,1.1
		c0.2,0.3,0,0.7,0.1,0.9l-0.1,0.1C24.7,48.3,24.3,47.9,24.4,47.3 M25.6,48c0.3,0.3,0.9,0.2,1.4,0.3c0.1,0.3,0.1,0.6-0.1,0.9
		c-0.4-0.1-1-0.1-1.2-0.4C25.7,48.5,25.5,48.3,25.6,48 M25.5,47.1c0.1-0.2,0-0.5,0.3-0.6c0.2-0.1,0.4-0.1,0.5,0.2
		c0,0.3-0.1,0.6-0.1,0.9C25.8,47.7,25.6,47.5,25.5,47.1 M37.5,55.4c-0.1-0.9,0.3-1.6,0.9-2.3c0.3-0.1,0.8-0.2,1.1,0.1
		c-0.7,0.2-1.5,0.3-1.6,1.2c0,0.3-0.1,0.5,0.1,0.8c0.3,0.5,0.9,0.3,1.3,0.7c0,0.2-0.1,0.3-0.3,0.3C38.4,55.9,37.9,55.8,37.5,55.4
		 M36.5,57.2c0.6-0.3,1.3-0.8,2-0.6C38,57,37.2,57.2,36.5,57.2 M38.9,57.4c-0.3,0.9-0.8,1.6-1.3,2.4c-0.1,0.1-0.3,0.2-0.4,0.2
		c0-0.3,0.3-0.6,0.5-0.9c0.5-0.7,0.7-1.5,1.3-2.1C39.3,57.2,38.9,57.2,38.9,57.4 M39.6,56L39.6,56L39.6,56L39.6,56L39.6,56L39.6,56
		L39.6,56L39.6,56z M39.4,55.3c-0.4,0-0.9-0.2-1.2-0.3c-0.3-0.3,0-0.5,0-0.9c0.3-0.6,1.4-0.9,1.9-0.3C40,54.3,39.7,54.8,39.4,55.3
		 M40,55.3c0.1-0.3,0.3-0.8,0.4-1C40.3,54.5,40.1,55,40,55.3 M40.2,53.2c-0.3-0.1-0.5-0.4-0.9-0.4c0.3-0.1,0.6-0.1,0.9,0
		C40.5,52.9,40.2,53,40.2,53.2 M40.6,54L40.6,54v-0.3l0,0V54z M40.6,55.1c0-0.1,0.1-0.3,0.1-0.3c0.1-0.1,0.3,0.1,0.3,0.2
		C40.8,55.1,40.7,55.2,40.6,55.1 M40.9,53.6c0.2-0.3,0.2-0.7,0.3-0.9c0.3,0,0.5,0,0.7,0.1c0.1,0.5,0.7,1.2,0,1.6
		c-0.3,0.1-0.6,0.3-0.9,0.1C40.8,54.2,40.8,53.9,40.9,53.6 M42.8,52.8c-0.1-0.3,0.3-0.1,0.3-0.2l0.8,0.1
		C43.5,52.7,43,53.6,42.8,52.8 M44.1,53.1c-0.3,0.1-0.5,0.4-0.9,0.5C43.4,53.4,43.7,53.1,44.1,53.1 M43,54.8L43,54.8L43,54.8
		L43,54.8L43,54.8z M43,56.3c0,0.1,0,0.1-0.1,0.2L42.4,56C42.7,56,42.9,56.1,43,56.3 M42.4,55.5c0.1-0.1,0.2-0.1,0.3,0H42.4z
		 M42,55.1c0.1-0.2,0.3-0.3,0.4-0.3c0,0,0,0.1,0.1,0.1C42.3,54.9,42.2,55.1,42,55.1 M41.4,55.1L41.4,55.1l0.1-0.2
		C41.5,55,41.4,55,41.4,55.1 M41.5,56c0.3-0.3,0.6,0.2,0.8,0.5c0.3,0.6,1.4,1.1,1,1.9c-0.5,0.4-1.3,0-1.8,0.3
		c-0.3,0-0.8,0.1-0.9-0.3C40.8,57.7,41.1,56.8,41.5,56 M40.8,56.6l0.2-0.2c-0.2,0.6-0.5,1.3-0.9,1.9C39.9,57.6,40.6,57.1,40.8,56.6
		 M41.9,59.6c-0.5,0-1.2,0.3-1.7-0.1c0-0.2-0.2-0.3-0.2-0.5c0.4-0.2,0.8,0.3,1.1,0c0.6,0,1.2-0.1,1.8,0.1c0.3,0.1,0.7-0.4,0.8,0.1
		C43.6,60,42.5,59.4,41.9,59.6 M43.4,55.8L43.4,55.8L43.4,55.8L43.4,55.8L43.4,55.8z M43.6,57.5c0,0.3,0.3,0.3,0.1,0.6
		C43.6,58,43.5,57.7,43.6,57.5 M44.2,59L44.2,59c-0.2,0-0.2-0.3-0.2-0.4C44.2,58.7,44.3,58.9,44.2,59 M45.5,59.7
		c0,0.1-0.2,0.1-0.2,0c-0.8-0.9-1.1-2-1.6-3.1h0.1C44.4,57.6,44.9,58.7,45.5,59.7 M46.5,57.3C46.4,57.3,46.4,57.4,46.5,57.3
		c-0.9,0.1-1.3-0.3-1.9-0.7v-0.1C45.3,56.6,45.9,57,46.5,57.3 M45.8,53.9c0.3,0.1,0.3,0.4,0.3,0.7c0,0.6-0.3,1-0.9,1.3
		C45,56,44.6,56,44.2,56c0.6,0,1.3-0.3,1.5-0.9L45.8,53.9L45.8,53.9z M45.3,53.8c0.1,0.3,0.3,0.7,0.3,1.1c-0.3,0.5-0.8,0.5-1.2,0.6
		c-0.3,0-0.4-0.1-0.6-0.2c0-0.1,0-0.2-0.1-0.3c0.1-0.3-0.6-0.7-0.1-0.9C43.8,53.7,44.8,52.9,45.3,53.8 M56.7,45.9
		c0.4-0.2,1.1-0.2,1.5,0.1c0.3,0.1,0.7,0.3,0.9,0.5c0.3,0.3,0.3,1,0.2,1.5c-0.3,0.4-0.6,0.8-1.1,0.9c0-0.6,0.6-1,0.3-1.7
		c-0.3-0.5-1-0.6-1.6-0.5c-0.3,0.2-0.2,0.4-0.2,0.7l-0.1,0.9c-0.5,0-0.5-0.4-0.7-0.9C56,46.6,56.2,46.1,56.7,45.9 M57.2,48.2
		c0.3-0.3-0.1-1.9,0.7-0.9c0,0.2,0,0.5-0.2,0.7C57.6,48.1,57.4,48.3,57.2,48.2 M57.5,48.8c0,0.4-0.3,0.3-0.6,0.4h-0.6
		c-0.1-0.2-0.1-0.5-0.1-0.7C56.6,48.6,57.1,48.6,57.5,48.8 M37.8,48c2.3,0,4.6-0.2,6.8,0.3c0.7,0,1.4,0.2,2.1,0.3
		c1.5,0.2,2.7,0.6,4.2,0.7c0.3,0.1,0.5,0.1,0.8,0.1c2.3,0.3,4.9,1,7,0c0,0.9-0.3,1.8-0.5,2.7c-0.2,0.3,0,0.7-0.3,0.9
		c0,0.4-0.3,0.7-0.7,0.9c-3,0.7-6-0.3-9-0.9c-4.1-0.9-8.9-1.1-13.1-0.2c-2,0.3-3.8,0.9-5.7,1.4c-1.2,0.2-2.5,0.3-3.6,0
		c-0.9-0.4-0.5-1.6-0.9-2.4c0.1-0.6-0.2-1.1-0.2-1.8c-0.1-0.2-0.2-0.4-0.1-0.7c0.3,0.1,0.8,0.3,1.2,0.4c2.1,0.4,4-0.3,6.1-0.6
		C33.9,48.4,35.9,48.2,37.8,48"/>
</g>
<rect x="91.4" y="38" width="161.6" height="1.1"/>
<text transform="matrix(1 0 0 1 91.4468 54.6284)" class="st2 st0">National Capital Authority</text>
<text transform="matrix(1 0 0 1 91.4463 28.855)" class="st2 st1">Australian Government</text>
</svg>
